# Blender v2.79 (sub 0) OBJ File: 'lantern.blend'
# www.blender.org
mtllib lantern.mtl
o Cube_Cube.002
v 0.016279 3.613935 0.100000
v -0.001086 3.712416 0.100000
v 0.016279 3.613935 -0.100000
v -0.001086 3.712416 -0.100000
v 1.001086 3.787584 0.100000
v 0.983721 3.886065 0.100000
v 1.001086 3.787584 -0.100000
v 0.983721 3.886065 -0.100000
v 0.750000 3.550000 -0.200000
v 0.750000 3.800000 -0.050000
v 0.826537 3.550000 -0.184776
v 0.769134 3.800000 -0.046194
v 0.891421 3.550000 -0.141421
v 0.785355 3.800000 -0.035355
v 0.934776 3.550000 -0.076537
v 0.796194 3.800000 -0.019134
v 0.950000 3.550000 0.000000
v 0.800000 3.800000 0.000000
v 0.934776 3.550000 0.076537
v 0.796194 3.800000 0.019134
v 0.891421 3.550000 0.141421
v 0.785355 3.800000 0.035355
v 0.826537 3.550000 0.184776
v 0.769134 3.800000 0.046194
v 0.750000 3.550000 0.200000
v 0.750000 3.800000 0.050000
v 0.673463 3.550000 0.184776
v 0.730866 3.800000 0.046194
v 0.608579 3.550000 0.141421
v 0.714645 3.800000 0.035355
v 0.565224 3.550000 0.076537
v 0.703806 3.800000 0.019134
v 0.550000 3.550000 -0.000000
v 0.700000 3.800000 -0.000000
v 0.565224 3.550000 -0.076537
v 0.703806 3.800000 -0.019134
v 0.608579 3.550000 -0.141421
v 0.714645 3.800000 -0.035355
v 0.673463 3.550000 -0.184776
v 0.730866 3.800000 -0.046194
v -0.000000 0.000000 -0.100000
v -0.000000 3.850000 -0.100000
v 0.038268 0.000000 -0.092388
v 0.038268 3.850000 -0.092388
v 0.070711 0.000000 -0.070711
v 0.070711 3.850000 -0.070711
v 0.092388 0.000000 -0.038268
v 0.092388 3.850000 -0.038268
v 0.100000 0.000000 0.000000
v 0.100000 3.850000 0.000000
v 0.092388 0.000000 0.038268
v 0.092388 3.850000 0.038268
v 0.070711 0.000000 0.070711
v 0.070711 3.850000 0.070711
v 0.038268 0.000000 0.092388
v 0.038268 3.850000 0.092388
v -0.000000 0.000000 0.100000
v -0.000000 3.850000 0.100000
v -0.038268 0.000000 0.092388
v -0.038268 3.850000 0.092388
v -0.070711 0.000000 0.070711
v -0.070711 3.850000 0.070711
v -0.092388 0.000000 0.038268
v -0.092388 3.850000 0.038268
v -0.100000 0.000000 -0.000000
v -0.100000 3.850000 -0.000000
v -0.092388 0.000000 -0.038268
v -0.092388 3.850000 -0.038268
v -0.070711 0.000000 -0.070711
v -0.070711 3.850000 -0.070711
v -0.038268 0.000000 -0.092388
v -0.038268 3.850000 -0.092388
v 0.076537 3.850000 -0.184776
v -0.000000 3.850000 -0.200000
v 0.141421 3.850000 -0.141421
v 0.184776 3.850000 -0.076537
v 0.200000 3.850000 0.000000
v 0.184776 3.850000 0.076537
v 0.141421 3.850000 0.141421
v 0.076537 3.850000 0.184776
v 0.000000 3.850000 0.200000
v -0.076537 3.850000 0.184776
v -0.141421 3.850000 0.141421
v -0.184776 3.850000 0.076537
v -0.200000 3.850000 -0.000000
v -0.184776 3.850000 -0.076537
v -0.141421 3.850000 -0.141421
v -0.076537 3.850000 -0.184776
v 0.076537 3.950000 -0.184776
v 0.000000 3.950000 -0.200000
v 0.141421 3.950000 -0.141421
v 0.184776 3.950000 -0.076537
v 0.200000 3.950000 0.000000
v 0.184776 3.950000 0.076537
v 0.141421 3.950000 0.141421
v 0.076537 3.950000 0.184776
v 0.000000 3.950000 0.200000
v -0.076537 3.950000 0.184776
v -0.141421 3.950000 0.141421
v -0.184776 3.950000 0.076537
v -0.200000 3.950000 -0.000000
v -0.184776 3.950000 -0.076537
v -0.141421 3.950000 -0.141421
v -0.076537 3.950000 -0.184776
vt 0.419317 0.698305
vt 0.388400 0.745758
vt 0.388400 0.698305
vt 0.647376 0.469983
vt 0.678274 0.707297
vt 0.647376 0.707390
vt 0.754420 0.653733
vt 0.723353 0.700956
vt 0.723353 0.653733
vt 0.678273 0.187403
vt 0.647376 0.424717
vt 0.647376 0.187310
vt 0.450963 0.537428
vt 0.388400 0.302932
vt 0.450963 0.302932
vt 0.388400 0.022540
vt 0.450746 0.257852
vt 0.388400 0.257852
vt 0.419317 0.745758
vt 0.678274 0.469890
vt 0.754420 0.700956
vt 0.678273 0.424810
vt 0.388400 0.537428
vt 0.450746 0.022540
vt 0.814348 0.341120
vt 0.724131 0.360735
vt 0.723353 0.341120
vt 0.814543 0.346024
vt 0.726347 0.377363
vt 0.725890 0.049569
vt 0.634512 0.039075
vt 0.637088 0.022540
vt 0.725246 0.053703
vt 0.633608 0.058579
vt 0.725020 0.058579
vt 0.634512 0.078083
vt 0.725246 0.063455
vt 0.637088 0.094618
vt 0.726347 0.187310
vt 0.814543 0.218650
vt 0.724131 0.203938
vt 0.814348 0.223553
vt 0.723353 0.223553
vt 0.724131 0.243168
vt 0.815097 0.232614
vt 0.726347 0.259797
vt 0.583781 0.697701
vt 0.496090 0.664636
vt 0.583235 0.680157
vt 0.496042 0.659462
vt 0.583044 0.659462
vt 0.496090 0.654288
vt 0.583235 0.638767
vt 0.583781 0.621223
vt 0.744764 0.752641
vt 0.741504 0.774168
vt 0.725117 0.769878
vt 0.815097 0.332059
vt 0.724131 0.321505
vt 0.726347 0.304876
vt 0.496042 0.533584
vt 0.538602 0.469890
vt 0.559737 0.576144
vt 0.137001 0.023647
vt 0.149563 0.972787
vt 0.137001 0.973075
vt 0.149563 0.023360
vt 0.160213 0.971967
vt 0.343321 0.023837
vt 0.332648 0.970254
vt 0.332648 0.022877
vt 0.320059 0.022540
vt 0.307469 0.970254
vt 0.307469 0.022877
vt 0.296796 0.023837
vt 0.251717 0.973075
vt 0.241067 0.022828
vt 0.251717 0.023647
vt 0.241067 0.972255
vt 0.228505 0.022540
vt 0.228505 0.971967
vt 0.215942 0.022828
vt 0.215942 0.972255
vt 0.205293 0.023647
vt 0.022540 0.022797
vt 0.033131 0.977270
vt 0.022540 0.977460
vt 0.033131 0.022607
vt 0.045625 0.977203
vt 0.045625 0.022540
vt 0.058118 0.977270
vt 0.058118 0.022607
vt 0.068709 0.977460
vt 0.529241 0.338040
vt 0.533146 0.302932
vt 0.537752 0.333401
vt 0.113789 0.022540
vt 0.124439 0.972787
vt 0.113789 0.971967
vt 0.124439 0.023360
vt 0.514377 0.250355
vt 0.499351 0.237145
vt 0.505865 0.194053
vt 0.389288 0.637003
vt 0.420778 0.617867
vt 0.421666 0.637003
vt 0.565517 0.357810
vt 0.588675 0.375993
vt 0.565517 0.369932
vt 0.519200 0.357810
vt 0.503094 0.329351
vt 0.522726 0.346611
vt 0.537752 0.394341
vt 0.516123 0.415532
vt 0.529241 0.389702
vt 0.555476 0.338040
vt 0.581623 0.329352
vt 0.561991 0.346612
vt 0.546965 0.394341
vt 0.568595 0.415533
vt 0.551571 0.424810
vt 0.519200 0.369931
vt 0.496042 0.351749
vt 0.546965 0.333401
vt 0.551571 0.302932
vt 0.581623 0.398391
vt 0.561991 0.381131
vt 0.503094 0.398390
vt 0.522726 0.381130
vt 0.516123 0.312209
vt 0.588675 0.351750
vt 0.533146 0.424810
vt 0.568595 0.312209
vt 0.555476 0.389702
vt 0.496042 0.375992
vt 0.588528 0.071302
vt 0.581472 0.117911
vt 0.515921 0.135072
vt 0.531132 0.775407
vt 0.550122 0.742956
vt 0.550122 0.775583
vt 0.424193 0.653226
vt 0.391815 0.653226
vt 0.566221 0.743457
vt 0.566221 0.776083
vt 0.724110 0.438631
vt 0.758716 0.422443
vt 0.756558 0.438631
vt 0.724110 0.554276
vt 0.758716 0.538088
vt 0.756558 0.554276
vt 0.755800 0.457726
vt 0.723353 0.457726
vt 0.723353 0.573371
vt 0.756558 0.592466
vt 0.724110 0.592466
vt 0.755800 0.573371
vt 0.756558 0.476821
vt 0.724110 0.476821
vt 0.758716 0.608654
vt 0.726268 0.608654
vt 0.758715 0.493009
vt 0.726268 0.493009
vt 0.389288 0.598731
vt 0.424193 0.582507
vt 0.421666 0.598731
vt 0.496042 0.776083
vt 0.512142 0.742956
vt 0.512142 0.775583
vt 0.388400 0.617867
vt 0.531132 0.742781
vt 0.815097 0.350181
vt 0.725890 0.067589
vt 0.815097 0.214492
vt 0.814543 0.228457
vt 0.496227 0.669022
vt 0.496227 0.649902
vt 0.723353 0.764282
vt 0.723353 0.758225
vt 0.725117 0.752631
vt 0.728377 0.748350
vt 0.732636 0.746035
vt 0.737246 0.746037
vt 0.741505 0.748357
vt 0.746529 0.758237
vt 0.746529 0.764293
vt 0.744764 0.769887
vt 0.737246 0.776484
vt 0.732636 0.776481
vt 0.728377 0.774162
vt 0.814543 0.336216
vt 0.602296 0.512449
vt 0.602296 0.533584
vt 0.594208 0.553111
vt 0.579263 0.568055
vt 0.538602 0.576144
vt 0.519075 0.568055
vt 0.504130 0.553111
vt 0.496042 0.512449
vt 0.504130 0.492923
vt 0.519075 0.477978
vt 0.559737 0.469890
vt 0.579263 0.477978
vt 0.594208 0.492923
vt 0.160213 0.022540
vt 0.343321 0.971214
vt 0.320059 0.969916
vt 0.296796 0.971214
vt 0.205293 0.973075
vt 0.068709 0.022797
vt 0.514376 0.189414
vt 0.538614 0.202624
vt 0.523589 0.189414
vt 0.532100 0.194053
vt 0.542140 0.213824
vt 0.542140 0.225946
vt 0.538614 0.237145
vt 0.532100 0.245717
vt 0.523589 0.250355
vt 0.505865 0.245716
vt 0.495825 0.225945
vt 0.495825 0.213823
vt 0.499351 0.202624
vt 0.502882 0.117949
vt 0.502882 0.048963
vt 0.495825 0.095572
vt 0.495825 0.071347
vt 0.515921 0.031827
vt 0.568433 0.031802
vt 0.532957 0.022549
vt 0.551397 0.022540
vt 0.581472 0.048925
vt 0.588528 0.095527
vt 0.568433 0.135047
vt 0.551397 0.144325
vt 0.532957 0.144334
vt 0.726268 0.422443
vt 0.726268 0.538088
vt 0.391815 0.582507
vt 0.496042 0.743457
vn -0.9848 -0.1736 0.0000
vn -0.0000 0.0000 -1.0000
vn 0.9848 0.1736 0.0000
vn -0.0000 0.0000 1.0000
vn 0.1736 -0.9848 0.0000
vn -0.1736 0.9848 0.0000
vn 0.0000 0.8439 -0.5365
vn 0.3414 -0.4514 -0.8244
vn 0.0000 -0.4514 -0.8923
vn 0.2053 0.8439 -0.4957
vn 0.6309 -0.4514 -0.6309
vn 0.3794 0.8439 -0.3794
vn 0.8244 -0.4514 -0.3414
vn 0.4957 0.8439 -0.2053
vn 0.8923 -0.4514 0.0000
vn 0.5365 0.8439 0.0000
vn 0.8244 -0.4514 0.3414
vn 0.4957 0.8439 0.2053
vn 0.6309 -0.4514 0.6309
vn 0.2053 0.8439 0.4957
vn 0.3414 -0.4514 0.8244
vn 0.0000 0.8439 0.5365
vn 0.0000 -0.4514 0.8923
vn -0.3414 -0.4514 0.8244
vn -0.3794 0.8439 0.3794
vn -0.6309 -0.4514 0.6309
vn -0.4957 0.8439 0.2053
vn -0.8244 -0.4514 0.3414
vn -0.5365 0.8439 0.0000
vn -0.8923 -0.4514 0.0000
vn -0.4957 0.8439 -0.2053
vn -0.8244 -0.4514 -0.3414
vn -0.6309 -0.4514 -0.6309
vn 0.3794 0.8439 0.3794
vn -0.3794 0.8439 -0.3794
vn -0.3414 -0.4514 -0.8244
vn 0.0000 -0.7537 -0.6571
vn 0.2856 -0.6657 -0.6894
vn 0.0000 -0.6657 -0.7462
vn 0.2515 -0.7537 -0.6071
vn 0.5276 -0.6657 -0.5276
vn 0.6071 -0.7537 -0.2515
vn 0.6894 -0.6657 -0.2855
vn 0.7462 -0.6657 0.0000
vn 0.6071 -0.7537 0.2515
vn 0.6894 -0.6657 0.2855
vn 0.5276 -0.6657 0.5276
vn 0.4646 -0.7537 0.4646
vn 0.2855 -0.6657 0.6894
vn 0.2515 -0.7537 0.6071
vn 0.0000 -0.6657 0.7462
vn 0.0000 -0.7537 0.6571
vn -0.2855 -0.6657 0.6894
vn -0.2515 -0.7537 0.6071
vn -0.5276 -0.6657 0.5276
vn -0.4646 -0.7537 0.4646
vn -0.6894 -0.6657 0.2855
vn -0.6071 -0.7537 0.2515
vn -0.7462 -0.6657 0.0000
vn -0.6571 -0.7537 0.0000
vn -0.6894 -0.6657 -0.2855
vn -0.6071 -0.7537 -0.2515
vn -0.5276 -0.6657 -0.5276
vn 0.4646 -0.7537 -0.4646
vn -0.4646 -0.7537 -0.4646
vn -0.2855 -0.6657 -0.6894
vn -0.2515 -0.7537 -0.6071
vn 0.7462 0.6657 0.0000
vn 0.6894 0.6657 0.2855
vn 0.2855 -0.6657 -0.6894
vn 0.6571 -0.7537 0.0000
vn 0.0000 0.6657 0.7462
vn 0.5276 0.6657 0.5276
vn 0.5276 0.6657 -0.5276
vn -0.6894 0.6657 -0.2855
vn -0.5276 0.6657 -0.5276
vn 0.2855 0.6657 0.6894
vn -0.2855 0.6657 -0.6894
vn 0.2855 0.6657 -0.6894
vn 0.0000 0.6657 -0.7462
vn -0.2855 0.6657 0.6894
vn -0.5276 0.6657 0.5276
vn 0.6894 0.6657 -0.2855
vn -0.6894 0.6657 0.2855
vn -0.7462 0.6657 0.0000
vn -0.2053 0.8439 0.4957
vn -0.2053 0.8439 -0.4957
usemtl None
s off
f 2/1/1 3/2/1 1/3/1
f 3/4/2 8/5/2 7/6/2
f 8/7/3 5/8/3 7/9/3
f 6/10/4 1/11/4 5/12/4
f 7/13/5 1/14/5 3/15/5
f 4/16/6 6/17/6 8/18/6
f 2/1/1 4/19/1 3/2/1
f 3/4/2 4/20/2 8/5/2
f 8/7/3 6/21/3 5/8/3
f 6/10/4 2/22/4 1/11/4
f 7/13/5 5/23/5 1/14/5
f 4/16/6 2/24/6 6/17/6
s 1
f 10/25/7 11/26/8 9/27/9
f 12/28/10 13/29/11 11/26/8
f 14/30/12 15/31/13 13/32/11
f 16/33/14 17/34/15 15/31/13
f 18/35/16 19/36/17 17/34/15
f 20/37/18 21/38/19 19/36/17
f 21/39/19 24/40/20 23/41/21
f 23/41/21 26/42/22 25/43/23
f 26/42/22 27/44/24 25/43/23
f 27/44/24 30/45/25 29/46/26
f 29/47/26 32/48/27 31/49/28
f 31/49/28 34/50/29 33/51/30
f 33/51/30 36/52/31 35/53/32
f 36/52/31 37/54/33 35/53/32
f 30/55/25 22/56/34 14/57/12
f 38/58/35 39/59/36 37/60/33
f 39/59/36 10/25/7 9/27/9
f 23/61/21 31/62/28 15/63/13
f 42/64/37 43/65/38 41/66/39
f 44/67/40 45/68/41 43/65/38
f 45/69/41 48/70/42 47/71/43
f 48/70/42 49/72/44 47/71/43
f 49/72/44 52/73/45 51/74/46
f 52/73/45 53/75/47 51/74/46
f 54/76/48 55/77/49 53/78/47
f 56/79/50 57/80/51 55/77/49
f 58/81/52 59/82/53 57/80/51
f 60/83/54 61/84/55 59/82/53
f 62/85/56 63/86/57 61/87/55
f 64/88/58 65/89/59 63/86/57
f 66/90/60 67/91/61 65/89/59
f 68/92/62 69/93/63 67/91/61
f 46/94/64 76/95/43 48/96/42
f 70/97/65 71/98/66 69/99/63
f 72/100/67 41/66/39 71/98/66
f 59/101/53 63/102/57 71/103/66
f 78/104/46 93/105/68 94/106/69
f 56/107/50 81/108/51 58/109/52
f 42/110/37 73/111/70 44/112/40
f 66/113/60 86/114/61 68/115/62
f 52/116/45 79/117/47 54/118/48
f 64/119/58 83/120/55 84/121/57
f 72/122/67 74/123/39 42/110/37
f 50/124/71 76/95/43 77/125/44
f 58/109/52 82/126/53 60/127/54
f 68/115/62 87/128/63 70/129/65
f 46/94/64 73/111/70 75/130/41
f 54/118/48 80/131/49 56/107/50
f 64/119/58 85/132/59 66/113/60
f 52/116/45 77/125/44 78/133/46
f 60/127/54 83/120/55 62/134/56
f 70/129/65 88/135/66 72/122/67
f 97/136/72 95/137/73 91/138/74
f 85/139/59 102/140/75 86/141/61
f 78/104/46 95/142/73 79/143/47
f 86/141/61 103/144/76 87/145/63
f 80/146/49 95/147/73 96/148/77
f 88/149/66 103/150/76 104/151/78
f 80/146/49 97/152/72 81/153/51
f 74/154/39 89/155/79 73/156/70
f 88/149/66 90/157/80 74/154/39
f 81/153/51 98/158/81 82/159/53
f 73/156/70 91/160/74 75/161/41
f 82/159/53 99/162/82 83/163/55
f 76/164/43 91/165/74 92/166/83
f 83/167/55 100/168/84 84/169/57
f 76/164/43 93/105/68 77/170/44
f 85/139/59 100/168/84 101/171/85
f 10/25/7 12/28/10 11/26/8
f 12/28/10 14/172/12 13/29/11
f 14/30/12 16/33/14 15/31/13
f 16/33/14 18/35/16 17/34/15
f 18/35/16 20/37/18 19/36/17
f 20/37/18 22/173/34 21/38/19
f 21/39/19 22/174/34 24/40/20
f 23/41/21 24/40/20 26/42/22
f 26/42/22 28/175/86 27/44/24
f 27/44/24 28/175/86 30/45/25
f 29/47/26 30/176/25 32/48/27
f 31/49/28 32/48/27 34/50/29
f 33/51/30 34/50/29 36/52/31
f 36/52/31 38/177/35 37/54/33
f 14/57/12 12/178/10 10/179/7
f 10/179/7 40/180/87 38/181/35
f 38/181/35 36/182/31 34/183/29
f 34/183/29 32/184/27 38/181/35
f 30/55/25 28/185/86 26/186/22
f 26/186/22 24/187/20 22/56/34
f 22/56/34 20/188/18 18/189/16
f 18/189/16 16/190/14 22/56/34
f 14/57/12 10/179/7 38/181/35
f 38/181/35 32/184/27 30/55/25
f 30/55/25 26/186/22 22/56/34
f 22/56/34 16/190/14 14/57/12
f 14/57/12 38/181/35 30/55/25
f 38/58/35 40/191/87 39/59/36
f 39/59/36 40/191/87 10/25/7
f 39/192/36 9/193/9 15/63/13
f 11/194/8 13/195/11 15/63/13
f 15/63/13 17/196/15 19/197/17
f 19/197/17 21/198/19 23/61/21
f 23/61/21 25/199/23 27/200/24
f 27/200/24 29/201/26 31/62/28
f 31/62/28 33/202/30 39/192/36
f 35/203/32 37/204/33 39/192/36
f 9/193/9 11/194/8 15/63/13
f 15/63/13 19/197/17 23/61/21
f 23/61/21 27/200/24 31/62/28
f 33/202/30 35/203/32 39/192/36
f 39/192/36 15/63/13 31/62/28
f 42/64/37 44/67/40 43/65/38
f 44/67/40 46/205/64 45/68/41
f 45/69/41 46/206/64 48/70/42
f 48/70/42 50/207/71 49/72/44
f 49/72/44 50/207/71 52/73/45
f 52/73/45 54/208/48 53/75/47
f 54/76/48 56/79/50 55/77/49
f 56/79/50 58/81/52 57/80/51
f 58/81/52 60/83/54 59/82/53
f 60/83/54 62/209/56 61/84/55
f 62/85/56 64/88/58 63/86/57
f 64/88/58 66/90/60 65/89/59
f 66/90/60 68/92/62 67/91/61
f 68/92/62 70/210/65 69/93/63
f 46/94/64 75/130/41 76/95/43
f 70/97/65 72/100/67 71/98/66
f 72/100/67 42/64/37 41/66/39
f 71/103/66 41/211/39 47/212/43
f 43/213/38 45/214/41 47/212/43
f 47/212/43 49/215/44 51/216/46
f 51/216/46 53/217/47 55/218/49
f 55/218/49 57/219/51 59/101/53
f 59/101/53 61/220/55 63/102/57
f 63/102/57 65/221/59 71/103/66
f 67/222/61 69/223/63 71/103/66
f 41/211/39 43/213/38 47/212/43
f 47/212/43 51/216/46 55/218/49
f 55/218/49 59/101/53 71/103/66
f 65/221/59 67/222/61 71/103/66
f 71/103/66 47/212/43 55/218/49
f 78/104/46 77/170/44 93/105/68
f 56/107/50 80/131/49 81/108/51
f 42/110/37 74/123/39 73/111/70
f 66/113/60 85/132/59 86/114/61
f 52/116/45 78/133/46 79/117/47
f 64/119/58 62/134/56 83/120/55
f 72/122/67 88/135/66 74/123/39
f 50/124/71 48/96/42 76/95/43
f 58/109/52 81/108/51 82/126/53
f 68/115/62 86/114/61 87/128/63
f 46/94/64 44/112/40 73/111/70
f 54/118/48 79/117/47 80/131/49
f 64/119/58 84/121/57 85/132/59
f 52/116/45 50/124/71 77/125/44
f 60/127/54 82/126/53 83/120/55
f 70/129/65 87/128/63 88/135/66
f 91/138/74 89/224/79 103/225/76
f 90/226/80 104/227/78 103/225/76
f 103/225/76 102/228/75 99/229/82
f 101/230/85 100/231/84 99/229/82
f 99/229/82 98/232/81 97/136/72
f 97/136/72 96/233/77 95/137/73
f 95/137/73 94/234/69 93/235/68
f 93/235/68 92/236/83 95/137/73
f 89/224/79 90/226/80 103/225/76
f 102/228/75 101/230/85 99/229/82
f 99/229/82 97/136/72 91/138/74
f 95/137/73 92/236/83 91/138/74
f 91/138/74 103/225/76 99/229/82
f 85/139/59 101/171/85 102/140/75
f 78/104/46 94/106/69 95/142/73
f 86/141/61 102/140/75 103/144/76
f 80/146/49 79/237/47 95/147/73
f 88/149/66 87/238/63 103/150/76
f 80/146/49 96/148/77 97/152/72
f 74/154/39 90/157/80 89/155/79
f 88/149/66 104/151/78 90/157/80
f 81/153/51 97/152/72 98/158/81
f 73/156/70 89/155/79 91/160/74
f 82/159/53 98/158/81 99/162/82
f 76/164/43 75/239/41 91/165/74
f 83/167/55 99/240/82 100/168/84
f 76/164/43 92/166/83 93/105/68
f 85/139/59 84/169/57 100/168/84
