# Blender v2.79 (sub 0) OBJ File: 'bus_stop.blend'
# www.blender.org
mtllib bus_stop.mtl
o Cylinder
v 2.000000 0.000000 -3.100000
v 2.000000 2.500000 -3.100000
v 2.070711 0.000000 -3.070711
v 2.070711 2.500000 -3.070711
v 2.100000 0.000000 -3.000000
v 2.100000 2.500000 -3.000000
v 2.070711 0.000000 -2.929289
v 2.070711 2.500000 -2.929289
v 2.000000 0.000000 -2.900000
v 2.000000 2.500000 -2.900000
v 1.929289 0.000000 -2.929289
v 1.929289 2.500000 -2.929289
v 1.900000 0.000000 -3.000000
v 1.900000 2.500000 -3.000000
v 1.929289 0.000000 -3.070711
v 1.929289 2.500000 -3.070711
v 1.700000 2.350000 -2.890000
v 1.700000 3.150000 -2.890000
v 1.700000 2.350000 -3.110000
v 1.700000 3.150000 -3.110000
v 2.300000 2.350000 -2.890000
v 2.300000 3.150000 -2.890000
v 2.300000 2.350000 -3.110000
v 2.300000 3.150000 -3.110000
v 1.850000 3.250000 -2.945000
v 1.850000 3.250000 -3.055000
v 2.150000 3.250000 -3.055000
v 2.150000 3.250000 -2.945000
v 0.100000 -0.000000 -2.000000
v 0.100000 -0.000000 2.000000
v -0.100000 -0.000000 2.000000
v -0.100000 -0.000000 -2.000000
v 0.100000 2.000000 -1.999999
v 0.100000 2.000000 2.000001
v -0.100000 2.000000 2.000000
v -0.100000 2.000000 -2.000000
v 0.100001 0.000000 -2.200000
v -0.099999 0.000000 -2.200001
v 0.100001 2.000000 -2.199999
v -0.099999 2.000000 -2.200000
v 0.099999 -0.000000 2.200000
v -0.100002 -0.000000 2.200000
v 0.099998 2.000000 2.200002
v -0.100002 2.000000 2.199999
v 0.100000 2.200000 -1.999999
v 0.100000 2.200000 2.000001
v -0.100000 2.100000 -2.000000
v -0.100000 2.100000 2.000000
v 0.100001 2.100000 -2.199999
v -0.099999 2.100000 -2.200000
v 0.099998 2.100000 2.200002
v -0.100002 2.100000 2.199999
v 1.350000 2.000000 -1.999994
v 1.350000 2.000000 2.000005
v 1.350001 2.000000 -2.199995
v 1.349999 2.000000 2.200006
v 1.350000 2.200000 -1.999994
v 1.350000 2.200000 2.000005
v 1.350001 2.100000 -2.199995
v 1.349999 2.100000 2.200006
v 1.550000 2.000000 -1.999994
v 1.550000 2.000000 2.000006
v 1.550001 2.000000 -2.199994
v 1.549999 2.000000 2.200006
v 1.550000 2.100000 -1.999994
v 1.550000 2.100000 2.000006
v 1.550001 2.100000 -2.199994
v 1.549999 2.100000 2.200006
v 1.350001 0.000000 -2.199996
v 1.350000 0.000000 -1.999995
v 1.349999 0.000000 2.200005
v 1.350000 0.000000 2.000005
v 1.549999 0.000000 2.200006
v 1.550000 0.000000 2.000005
v 1.550001 0.000000 -2.199995
v 1.550000 0.000000 -1.999995
v 0.000000 0.600000 1.500000
v 0.000000 0.700000 1.500000
v 0.000000 0.600000 -1.500000
v 0.000000 0.700000 -1.500000
v 1.000000 0.600000 1.500000
v 1.000000 0.700000 1.500000
v 1.000000 0.600000 -1.500000
v 1.000000 0.700000 -1.500000
vt 0.739123 0.782476
vt 0.731870 0.509969
vt 0.739123 0.509826
vt 0.779341 0.782751
vt 0.772089 0.509826
vt 0.779341 0.509826
vt 0.772089 0.782751
vt 0.764837 0.509826
vt 0.713409 0.782620
vt 0.706156 0.509826
vt 0.713409 0.509969
vt 0.706156 0.782476
vt 0.698904 0.509969
vt 0.797803 0.509826
vt 0.805055 0.782751
vt 0.797803 0.782751
vt 0.181961 0.876577
vt 0.195362 0.882485
vt 0.176410 0.890840
vt 0.805055 0.509826
vt 0.812308 0.782751
vt 0.746375 0.782620
vt 0.746375 0.509969
vt 0.232775 0.890840
vt 0.227224 0.896749
vt 0.213823 0.890840
vt 0.713409 0.889607
vt 0.690845 0.802270
vt 0.713409 0.802270
vt 0.256410 0.769678
vt 0.317949 0.856926
vt 0.256410 0.856926
vt 0.514872 0.845839
vt 0.492308 0.758502
vt 0.514872 0.758502
vt 0.176410 0.769678
vt 0.237949 0.856926
vt 0.176410 0.856926
vt 0.592820 0.856987
vt 0.615385 0.922489
vt 0.592820 0.922489
vt 0.551795 0.856987
vt 0.568718 0.873362
vt 0.557436 0.873362
vt 0.568718 0.906113
vt 0.574359 0.922489
vt 0.557436 0.906113
vt 0.222564 0.758502
vt 0.237949 0.769678
vt 0.302564 0.758502
vt 0.317949 0.769678
vt 0.888205 0.815502
vt 0.908718 0.378821
vt 0.908718 0.815502
vt 0.157949 0.531660
vt 0.029744 0.509825
vt 0.157949 0.509826
vt 0.476923 0.468340
vt 0.682051 0.031659
vt 0.682051 0.468340
vt 0.888205 0.356987
vt 0.908718 0.356987
vt 0.224615 0.468341
vt 0.019487 0.031659
vt 0.224615 0.031659
vt 0.476923 0.490175
vt 0.512820 0.509825
vt 0.533333 0.727946
vt 0.512820 0.727946
vt 0.019487 0.009825
vt 0.009231 0.031659
vt 0.009231 0.009825
vt 0.224615 0.009825
vt 0.908718 0.837336
vt 0.888205 0.837336
vt 0.196923 0.727946
vt 0.176410 0.509825
vt 0.196923 0.509825
vt 0.019487 0.468341
vt 0.019487 0.490175
vt 0.476923 0.031659
vt 0.682051 0.009825
vt 0.849231 0.031660
vt 0.869743 0.468340
vt 0.849231 0.468341
vt 0.869744 0.490174
vt 0.849231 0.490175
vt 0.176410 0.738852
vt 0.176410 0.727946
vt 0.325128 0.738852
vt 0.196923 0.738852
vt 0.849231 0.009825
vt 0.721026 0.031660
vt 0.721026 0.009826
vt 0.009231 0.490175
vt 0.009231 0.468340
vt 0.512820 0.738852
vt 0.384615 0.738852
vt 0.364103 0.727946
vt 0.384615 0.727946
vt 0.029744 0.531659
vt 0.009231 0.968340
vt 0.009231 0.531659
vt 0.448205 0.468341
vt 0.243077 0.490175
vt 0.243077 0.468340
vt 0.029744 0.968340
vt 0.157949 0.990175
vt 0.157949 0.968341
vt 0.721026 0.490175
vt 0.721026 0.468341
vt 0.458461 0.490175
vt 0.448205 0.490175
vt 0.448205 0.031659
vt 0.458461 0.468341
vt 0.448205 0.009825
vt 0.458461 0.031659
vt 0.325128 0.727946
vt 0.345641 0.738852
vt 0.700513 0.490175
vt 0.700513 0.468341
vt 0.700513 0.031660
vt 0.395897 0.758502
vt 0.375385 0.976843
vt 0.375385 0.758502
vt 0.492308 0.865489
vt 0.512821 0.887323
vt 0.492308 0.887323
vt 0.633846 0.878821
vt 0.654359 0.856987
vt 0.654359 0.878821
vt 0.336410 0.976843
vt 0.356923 0.758502
vt 0.356923 0.976843
vt 0.434872 0.758502
vt 0.414359 0.976623
vt 0.414359 0.758502
vt 0.384615 0.509825
vt 0.243077 0.009825
vt 0.345641 0.509825
vt 0.345641 0.727946
vt 0.453333 0.976623
vt 0.473846 0.758502
vt 0.473846 0.976623
vt 0.869744 0.031659
vt 0.869744 0.009825
vt 0.700513 0.009826
vt 0.830769 0.837336
vt 0.841026 0.509826
vt 0.841026 0.837336
vt 0.731870 0.911441
vt 0.742116 0.802270
vt 0.742116 0.911441
vt 0.859487 0.837336
vt 0.869744 0.509826
vt 0.869744 0.837336
vt 0.764837 0.911572
vt 0.775083 0.802402
vt 0.775083 0.911572
vt 0.654359 0.509825
vt 0.551795 0.837336
vt 0.551795 0.509825
vt 0.888205 0.337336
vt 0.990769 0.009825
vt 0.990769 0.337336
vt 0.731870 0.782620
vt 0.764837 0.782751
vt 0.698904 0.782620
vt 0.189811 0.896749
vt 0.181961 0.896749
vt 0.176410 0.882485
vt 0.189811 0.876577
vt 0.195362 0.890840
vt 0.812308 0.509826
vt 0.213823 0.882485
vt 0.219374 0.876577
vt 0.227224 0.876577
vt 0.232775 0.882485
vt 0.219374 0.896749
vt 0.690845 0.889607
vt 0.492308 0.845839
vt 0.615385 0.856987
vt 0.574359 0.856987
vt 0.551795 0.922489
vt 0.191795 0.758502
vt 0.271795 0.758502
vt 0.888205 0.378821
vt 0.682051 0.490175
vt 0.533333 0.509825
vt 0.224615 0.490175
vt 0.476923 0.009825
vt 0.533333 0.738852
vt 0.364103 0.738852
vt 0.029744 0.990174
vt 0.458461 0.009825
vt 0.395897 0.976843
vt 0.512821 0.865489
vt 0.633846 0.856987
vt 0.336410 0.758502
vt 0.434872 0.976623
vt 0.364103 0.509825
vt 0.243077 0.031659
vt 0.325128 0.509825
vt 0.453333 0.758502
vt 0.830769 0.509826
vt 0.731870 0.802270
vt 0.859487 0.509826
vt 0.764837 0.802402
vt 0.654359 0.837336
vt 0.888205 0.009825
vn 0.3827 0.0000 -0.9239
vn 0.9239 0.0000 -0.3827
vn 0.9239 0.0000 0.3827
vn 0.3827 0.0000 0.9239
vn -0.3827 0.0000 0.9239
vn -0.9239 0.0000 0.3827
vn 0.0000 1.0000 0.0000
vn -0.9239 0.0000 -0.3827
vn -0.3827 0.0000 -0.9239
vn 0.0000 -1.0000 0.0000
vn -1.0000 0.0000 0.0000
vn -0.0000 0.0000 -1.0000
vn 1.0000 0.0000 0.0000
vn 0.0000 0.0000 1.0000
vn 0.5547 0.8321 0.0000
vn -0.5547 0.8320 0.0000
vn 0.0000 0.4819 0.8762
vn 0.0000 0.4819 -0.8762
vn -0.4472 0.8944 -0.0000
vn -0.0000 0.8944 0.4472
vn 0.0000 0.8944 -0.4472
vn 0.4472 0.8944 0.0000
vn -0.5547 0.8321 0.0000
usemtl None
s off
f 2/1/1 3/2/1 1/3/1
f 4/4/2 5/5/2 3/6/2
f 6/7/3 7/8/3 5/5/3
f 8/9/4 9/10/4 7/11/4
f 10/12/5 11/13/5 9/10/5
f 12/14/6 13/15/6 11/16/6
f 14/17/7 10/18/7 2/19/7
f 14/20/8 15/21/8 13/15/8
f 16/22/9 1/3/9 15/23/9
f 9/24/10 11/25/10 15/26/10
f 18/27/11 19/28/11 17/29/11
f 20/30/12 23/31/12 19/32/12
f 24/33/13 21/34/13 23/35/13
f 22/36/14 17/37/14 21/38/14
f 23/39/10 17/40/10 19/41/10
f 22/42/15 27/43/15 28/44/15
f 26/45/7 28/44/7 27/43/7
f 20/46/16 25/47/16 26/45/16
f 22/36/17 25/48/17 18/49/17
f 20/30/18 27/50/18 24/51/18
f 29/52/10 31/53/10 32/54/10
f 34/55/10 56/56/10 43/57/10
f 33/58/13 30/59/13 29/60/13
f 31/53/10 41/61/10 42/62/10
f 31/63/11 36/64/11 32/65/11
f 29/60/13 39/66/13 33/58/13
f 37/67/12 40/68/12 39/69/12
f 40/70/11 47/71/11 50/72/11
f 36/64/11 38/73/11 32/65/11
f 29/52/10 38/74/10 37/75/10
f 43/76/14 42/77/14 41/78/14
f 35/79/11 47/71/11 36/64/11
f 31/63/11 44/80/11 35/79/11
f 34/81/13 41/82/13 30/59/13
f 45/83/19 48/84/19 46/85/19
f 52/86/20 51/87/20 46/85/20
f 48/84/19 52/86/19 46/85/19
f 43/76/14 52/88/14 44/89/14
f 43/76/14 60/90/14 51/91/14
f 49/92/21 57/93/21 59/94/21
f 35/79/11 52/95/11 48/96/11
f 40/68/12 49/97/12 39/69/12
f 59/98/12 63/99/12 55/100/12
f 54/101/10 61/102/10 62/103/10
f 62/104/13 73/105/13 74/106/13
f 49/97/12 55/100/12 39/69/12
f 34/55/10 53/107/10 54/101/10
f 39/108/10 53/107/10 33/109/10
f 46/85/7 57/93/7 45/83/7
f 46/85/20 60/110/20 58/111/20
f 62/104/13 68/112/13 64/113/13
f 61/114/13 66/115/13 62/104/13
f 63/116/13 65/117/13 61/114/13
f 56/118/14 68/119/14 60/90/14
f 68/120/22 66/121/22 58/111/22
f 58/111/22 65/122/22 57/93/22
f 54/123/11 71/124/11 56/125/11
f 60/110/20 68/120/20 58/111/20
f 72/126/10 73/127/10 71/128/10
f 69/129/10 76/130/10 70/131/10
f 55/132/11 70/133/11 53/134/11
f 62/135/12 72/136/12 54/137/12
f 63/99/12 69/138/12 55/100/12
f 61/114/13 75/139/13 63/116/13
f 56/118/14 73/140/14 64/141/14
f 53/142/14 76/143/14 61/144/14
f 47/145/19 45/83/19 50/146/19
f 50/146/21 45/83/21 49/92/21
f 65/122/22 67/147/22 57/93/22
f 57/93/21 67/147/21 59/94/21
f 78/148/11 79/149/11 77/150/11
f 80/151/12 83/152/12 79/153/12
f 84/154/13 81/155/13 83/156/13
f 82/157/14 77/158/14 81/159/14
f 83/160/10 77/161/10 79/162/10
f 80/163/7 82/164/7 84/165/7
f 2/1/1 4/166/1 3/2/1
f 4/4/2 6/7/2 5/5/2
f 6/7/3 8/167/3 7/8/3
f 8/9/4 10/12/4 9/10/4
f 10/12/5 12/168/5 11/13/5
f 12/14/6 14/20/6 13/15/6
f 6/169/7 4/170/7 2/19/7
f 2/19/7 16/171/7 14/17/7
f 14/17/7 12/172/7 10/18/7
f 10/18/7 8/173/7 6/169/7
f 6/169/7 2/19/7 10/18/7
f 14/20/8 16/174/8 15/21/8
f 16/22/9 2/1/9 1/3/9
f 15/26/10 1/175/10 3/176/10
f 3/176/10 5/177/10 15/26/10
f 7/178/10 9/24/10 15/26/10
f 11/25/10 13/179/10 15/26/10
f 15/26/10 5/177/10 7/178/10
f 18/27/11 20/180/11 19/28/11
f 20/30/12 24/51/12 23/31/12
f 24/33/13 22/181/13 21/34/13
f 22/36/14 18/49/14 17/37/14
f 23/39/10 21/182/10 17/40/10
f 22/42/15 24/183/15 27/43/15
f 26/45/7 25/47/7 28/44/7
f 20/46/23 18/184/23 25/47/23
f 22/36/17 28/185/17 25/48/17
f 20/30/18 26/186/18 27/50/18
f 29/52/10 30/187/10 31/53/10
f 34/55/10 54/101/10 56/56/10
f 33/58/13 34/81/13 30/59/13
f 31/53/10 30/187/10 41/61/10
f 31/63/11 35/79/11 36/64/11
f 29/60/13 37/188/13 39/66/13
f 37/67/12 38/189/12 40/68/12
f 40/70/11 36/64/11 47/71/11
f 36/64/11 40/70/11 38/73/11
f 29/52/10 32/54/10 38/74/10
f 43/76/14 44/89/14 42/77/14
f 35/79/11 48/96/11 47/71/11
f 31/63/11 42/190/11 44/80/11
f 34/81/13 43/191/13 41/82/13
f 45/83/19 47/145/19 48/84/19
f 43/76/14 51/91/14 52/88/14
f 43/76/14 56/118/14 60/90/14
f 49/92/21 45/83/21 57/93/21
f 35/79/11 44/80/11 52/95/11
f 40/68/12 50/192/12 49/97/12
f 59/98/12 67/193/12 63/99/12
f 54/101/10 53/107/10 61/102/10
f 62/104/13 64/113/13 73/105/13
f 49/97/12 59/98/12 55/100/12
f 34/55/10 33/109/10 53/107/10
f 39/108/10 55/194/10 53/107/10
f 46/85/7 58/111/7 57/93/7
f 46/85/20 51/87/20 60/110/20
f 62/104/13 66/115/13 68/112/13
f 61/114/13 65/117/13 66/115/13
f 63/116/13 67/195/13 65/117/13
f 56/118/14 64/141/14 68/119/14
f 58/111/22 66/121/22 65/122/22
f 54/123/11 72/196/11 71/124/11
f 72/126/10 74/197/10 73/127/10
f 69/129/10 75/198/10 76/130/10
f 55/132/11 69/199/11 70/133/11
f 62/135/12 74/200/12 72/136/12
f 63/99/12 75/201/12 69/138/12
f 61/114/13 76/202/13 75/139/13
f 56/118/14 71/203/14 73/140/14
f 53/142/14 70/204/14 76/143/14
f 78/148/11 80/205/11 79/149/11
f 80/151/12 84/206/12 83/152/12
f 84/154/13 82/207/13 81/155/13
f 82/157/14 78/208/14 77/158/14
f 83/160/10 81/209/10 77/161/10
f 80/163/7 78/210/7 82/164/7
