# Blender v2.79 (sub 0) OBJ File: 'tree.blend'
# www.blender.org
mtllib tree.mtl
o Icosphere_Icosphere.001
v 0.000000 0.750000 0.000000
v 0.361800 1.026392 0.262860
v -0.138193 1.026392 0.425320
v -0.447212 1.026392 0.000000
v -0.138193 1.026392 -0.425320
v 0.361800 1.026392 -0.262860
v 0.138193 1.473608 0.425320
v -0.361800 1.473608 0.262860
v -0.361800 1.473608 -0.262860
v 0.138193 1.473608 -0.425320
v 0.447212 1.473608 0.000000
v 0.000000 1.750000 0.000000
v 0.000000 0.000000 -0.050000
v 0.000000 1.000000 -0.050000
v 0.019134 0.000000 -0.046194
v 0.019134 1.000000 -0.046194
v 0.035355 0.000000 -0.035355
v 0.035355 1.000000 -0.035355
v 0.046194 0.000000 -0.019134
v 0.046194 1.000000 -0.019134
v 0.050000 0.000000 0.000000
v 0.050000 1.000000 0.000000
v 0.046194 0.000000 0.019134
v 0.046194 1.000000 0.019134
v 0.035355 0.000000 0.035355
v 0.035355 1.000000 0.035355
v 0.019134 0.000000 0.046194
v 0.019134 1.000000 0.046194
v 0.000000 0.000000 0.050000
v 0.000000 1.000000 0.050000
v -0.019134 0.000000 0.046194
v -0.019134 1.000000 0.046194
v -0.035355 0.000000 0.035355
v -0.035355 1.000000 0.035355
v -0.046194 0.000000 0.019134
v -0.046194 1.000000 0.019134
v -0.050000 0.000000 -0.000000
v -0.050000 1.000000 -0.000000
v -0.046194 0.000000 -0.019134
v -0.046194 1.000000 -0.019134
v -0.035355 0.000000 -0.035355
v -0.035355 1.000000 -0.035355
v -0.019134 0.000000 -0.046194
v -0.019134 1.000000 -0.046194
vt 0.186829 0.231052
vt 0.132726 0.015224
vt 0.328476 0.097664
vt 0.011745 0.231049
vt 0.328476 0.364445
vt 0.132723 0.446880
vt 0.017667 0.908799
vt 0.011745 0.688497
vt 0.188259 0.822768
vt 0.411754 0.844414
vt 0.411754 0.588808
vt 0.586841 0.729025
vt 0.388264 0.563357
vt 0.388264 0.830025
vt 0.211750 0.697628
vt 0.610332 0.729025
vt 0.610332 0.477327
vt 0.785419 0.588808
vt 0.017667 0.477327
vt 0.188259 0.556101
vt 0.586841 0.477327
vt 0.217671 0.908799
vt 0.217671 0.477327
vt 0.785419 0.844414
vt 0.668697 0.097664
vt 0.668697 0.364445
vt 0.527051 0.231052
vt 0.472948 0.015224
vt 0.351966 0.231049
vt 0.472944 0.446880
vt 0.937560 0.984689
vt 0.932105 0.477507
vt 0.937560 0.477846
vt 0.932105 0.984350
vt 0.925019 0.477327
vt 0.925019 0.984169
vt 0.917382 0.477331
vt 0.917382 0.984174
vt 0.910355 0.477521
vt 0.836142 0.984776
vt 0.830658 0.477327
vt 0.836142 0.477327
vt 0.830657 0.984776
vt 0.823556 0.477327
vt 0.823556 0.984776
vt 0.815919 0.477327
vt 0.815919 0.984776
vt 0.808909 0.477327
vt 0.988255 0.984169
vt 0.982800 0.477666
vt 0.988255 0.477327
vt 0.982800 0.984508
vt 0.975714 0.477846
vt 0.975714 0.984689
vt 0.968077 0.477842
vt 0.968077 0.984684
vt 0.961050 0.477652
vt 0.886865 0.984776
vt 0.881380 0.477327
vt 0.886864 0.477327
vt 0.881380 0.984776
vt 0.874279 0.477327
vt 0.496661 0.874861
vt 0.509118 0.885650
vt 0.503717 0.920842
vt 0.874279 0.984776
vt 0.866642 0.477327
vt 0.866642 0.984776
vt 0.859632 0.477327
vt 0.427134 0.874861
vt 0.450152 0.894796
vt 0.411754 0.904696
vt 0.910355 0.984364
vt 0.808909 0.984776
vt 0.961050 0.984494
vt 0.496661 0.924631
vt 0.489023 0.924631
vt 0.481966 0.920842
vt 0.476566 0.913842
vt 0.473643 0.904696
vt 0.481966 0.878649
vt 0.473643 0.894796
vt 0.476566 0.885650
vt 0.489023 0.874861
vt 0.503717 0.878649
vt 0.512041 0.894796
vt 0.512041 0.904696
vt 0.509118 0.913842
vt 0.859632 0.984776
vt 0.434772 0.924631
vt 0.427134 0.924631
vt 0.420078 0.920842
vt 0.414677 0.913842
vt 0.411754 0.894796
vt 0.414677 0.885650
vt 0.420078 0.878649
vt 0.434772 0.874861
vt 0.441829 0.878649
vt 0.447229 0.885649
vt 0.450152 0.904696
vt 0.447229 0.913842
vt 0.441829 0.920842
vn 0.1876 -0.7947 0.5774
vn 0.6071 -0.7947 0.0000
vn -0.4911 -0.7947 0.3568
vn -0.4911 -0.7947 -0.3568
vn 0.1876 -0.7947 -0.5774
vn 0.9822 -0.1876 0.0000
vn 0.3035 -0.1876 0.9342
vn -0.7946 -0.1876 0.5774
vn -0.7946 -0.1876 -0.5774
vn 0.3035 -0.1876 -0.9342
vn 0.7946 0.1876 0.5774
vn -0.3035 0.1876 0.9342
vn -0.9822 0.1876 0.0000
vn -0.3035 0.1876 -0.9342
vn 0.7946 0.1876 -0.5774
vn 0.4911 0.7947 0.3568
vn -0.1876 0.7947 0.5774
vn -0.6071 0.7947 0.0000
vn -0.1876 0.7947 -0.5774
vn 0.4911 0.7947 -0.3568
vn 0.1951 0.0000 -0.9808
vn 0.5556 0.0000 -0.8315
vn 0.8315 0.0000 -0.5556
vn 0.9808 0.0000 -0.1951
vn 0.9808 0.0000 0.1951
vn 0.8315 0.0000 0.5556
vn 0.5556 0.0000 0.8315
vn 0.1951 0.0000 0.9808
vn -0.1951 0.0000 0.9808
vn -0.5556 0.0000 0.8315
vn -0.8315 0.0000 0.5556
vn -0.9808 0.0000 0.1951
vn -0.9808 0.0000 -0.1951
vn -0.8315 0.0000 -0.5556
vn 0.0000 1.0000 0.0000
vn -0.5556 0.0000 -0.8315
vn -0.1951 0.0000 -0.9808
vn 0.0000 -1.0000 0.0000
usemtl None
s off
f 1/1/1 2/2/1 3/3/1
f 2/2/2 1/1/2 6/4/2
f 1/1/3 3/3/3 4/5/3
f 1/1/4 4/5/4 5/6/4
f 1/1/5 5/6/5 6/4/5
f 2/7/6 6/8/6 11/9/6
f 3/10/7 2/11/7 7/12/7
f 4/13/8 3/14/8 8/15/8
f 5/16/9 4/17/9 9/18/9
f 6/8/10 5/19/10 10/20/10
f 2/11/11 11/21/11 7/12/11
f 3/14/12 7/22/12 8/15/12
f 4/13/13 8/15/13 9/23/13
f 5/16/14 9/18/14 10/24/14
f 6/8/15 10/20/15 11/9/15
f 7/25/16 11/26/16 12/27/16
f 8/28/17 7/25/17 12/27/17
f 9/29/18 8/28/18 12/27/18
f 10/30/19 9/29/19 12/27/19
f 11/26/20 10/30/20 12/27/20
f 14/31/21 15/32/21 13/33/21
f 16/34/22 17/35/22 15/32/22
f 18/36/23 19/37/23 17/35/23
f 20/38/24 21/39/24 19/37/24
f 22/40/25 23/41/25 21/42/25
f 24/43/26 25/44/26 23/41/26
f 26/45/27 27/46/27 25/44/27
f 28/47/28 29/48/28 27/46/28
f 30/49/29 31/50/29 29/51/29
f 32/52/30 33/53/30 31/50/30
f 34/54/31 35/55/31 33/53/31
f 36/56/32 37/57/32 35/55/32
f 38/58/33 39/59/33 37/60/33
f 40/61/34 41/62/34 39/59/34
f 30/63/35 26/64/35 18/65/35
f 42/66/36 43/67/36 41/62/36
f 44/68/37 13/69/37 43/67/37
f 27/70/38 35/71/38 19/72/38
f 14/31/21 16/34/21 15/32/21
f 16/34/22 18/36/22 17/35/22
f 18/36/23 20/38/23 19/37/23
f 20/38/24 22/73/24 21/39/24
f 22/40/25 24/43/25 23/41/25
f 24/43/26 26/45/26 25/44/26
f 26/45/27 28/47/27 27/46/27
f 28/47/28 30/74/28 29/48/28
f 30/49/29 32/52/29 31/50/29
f 32/52/30 34/54/30 33/53/30
f 34/54/31 36/56/31 35/55/31
f 36/56/32 38/75/32 37/57/32
f 38/58/33 40/61/33 39/59/33
f 40/61/34 42/66/34 41/62/34
f 18/65/35 16/76/35 14/77/35
f 14/77/35 44/78/35 42/79/35
f 42/79/35 40/80/35 34/81/35
f 38/82/35 36/83/35 34/81/35
f 34/81/35 32/84/35 30/63/35
f 30/63/35 28/85/35 26/64/35
f 26/64/35 24/86/35 22/87/35
f 22/87/35 20/88/35 18/65/35
f 18/65/35 14/77/35 34/81/35
f 40/80/35 38/82/35 34/81/35
f 34/81/35 30/63/35 18/65/35
f 26/64/35 22/87/35 18/65/35
f 14/77/35 42/79/35 34/81/35
f 42/66/36 44/68/36 43/67/36
f 44/68/37 14/89/37 13/69/37
f 43/90/38 13/91/38 15/92/38
f 15/92/38 17/93/38 19/72/38
f 19/72/38 21/94/38 23/95/38
f 23/95/38 25/96/38 27/70/38
f 27/70/38 29/97/38 31/98/38
f 31/98/38 33/99/38 27/70/38
f 35/71/38 37/100/38 39/101/38
f 39/101/38 41/102/38 43/90/38
f 43/90/38 15/92/38 19/72/38
f 19/72/38 23/95/38 27/70/38
f 27/70/38 33/99/38 35/71/38
f 35/71/38 39/101/38 43/90/38
f 43/90/38 19/72/38 35/71/38
