# Blender v2.79 (sub 0) OBJ File: 'pylon.blend'
# www.blender.org
mtllib pylon.mtl
o Cone
v 0.000000 0.050000 -0.950000
v 0.000000 2.550000 0.000000
v 0.363549 0.050000 -0.877686
v 0.671751 0.050000 -0.671751
v 0.877686 0.050000 -0.363549
v 0.950000 0.050000 0.000000
v 0.877686 0.050000 0.363549
v 0.671751 0.050000 0.671751
v 0.363549 0.050000 0.877686
v 0.000000 0.050000 0.950000
v -0.363549 0.050000 0.877686
v -0.671751 0.050000 0.671752
v -0.877686 0.050000 0.363549
v -0.950000 0.050000 -0.000000
v -0.877685 0.050000 -0.363549
v -0.671751 0.050000 -0.671752
v -0.363549 0.050000 -0.877686
v -1.000000 0.000000 1.000000
v -1.000000 0.100000 1.000000
v -1.000000 0.000000 -1.000000
v -1.000000 0.100000 -1.000000
v 1.000000 0.000000 1.000000
v 1.000000 0.100000 1.000000
v 1.000000 0.000000 -1.000000
v 1.000000 0.100000 -1.000000
vt 0.840601 0.980761
vt 0.858130 0.619119
vt 0.858130 0.980761
vt 0.896606 0.980762
vt 0.914136 0.619119
vt 0.914136 0.980762
vt 0.619119 0.414079
vt 0.980761 0.431608
vt 0.619119 0.431608
vt 0.784596 0.980762
vt 0.802125 0.619119
vt 0.802125 0.980762
vt 0.019238 0.619119
vt 0.375603 0.974896
vt 0.019238 0.974896
vt 0.974896 0.375603
vt 0.619119 0.019238
vt 0.974896 0.019238
vt 0.840601 0.619119
vt 0.896606 0.619119
vt 0.980761 0.414079
vt 0.784596 0.619119
vt 0.375603 0.619119
vt 0.619119 0.375603
vt 0.019238 0.244105
vt 0.299941 0.299941
vt 0.019238 0.355776
vt 0.061972 0.458946
vt 0.140935 0.537909
vt 0.244105 0.580643
vt 0.355776 0.580643
vt 0.458946 0.537909
vt 0.537909 0.458946
vt 0.580643 0.355776
vt 0.580643 0.244105
vt 0.537909 0.140935
vt 0.458946 0.061972
vt 0.355776 0.019238
vt 0.244105 0.019238
vt 0.140935 0.061972
vt 0.061972 0.140935
vt 0.486056 0.925379
vt 0.414079 0.817835
vt 0.547076 0.619119
vt 0.613123 0.619119
vt 0.674143 0.644353
vt 0.720845 0.690978
vt 0.746120 0.751897
vt 0.746120 0.817835
vt 0.613123 0.950612
vt 0.720845 0.878754
vt 0.674143 0.925379
vt 0.547076 0.950612
vt 0.439354 0.878754
vt 0.414079 0.751897
vt 0.439354 0.690978
vt 0.486056 0.644352
vn -1.0000 0.0000 0.0000
vn 0.0000 0.0000 -1.0000
vn 1.0000 0.0000 0.0000
vn 0.0000 0.0000 1.0000
vn 0.0000 -1.0000 0.0000
vn 0.0000 1.0000 0.0000
vn 0.0000 -0.5245 -0.8514
vn 0.3258 -0.5245 -0.7866
vn 0.6020 -0.5245 -0.6020
vn 0.7866 -0.5245 -0.3258
vn 0.8514 -0.5245 0.0000
vn 0.7866 -0.5245 0.3258
vn 0.6020 -0.5245 0.6020
vn 0.3258 -0.5245 0.7866
vn 0.0000 -0.5245 0.8514
vn -0.3258 -0.5245 0.7866
vn -0.6020 -0.5245 0.6020
vn -0.7866 -0.5245 0.3258
vn -0.8514 -0.5245 0.0000
vn -0.7866 -0.5245 -0.3258
vn -0.6020 -0.5245 -0.6020
vn -0.3258 -0.5245 -0.7866
usemtl None
s off
f 19/1/1 20/2/1 18/3/1
f 21/4/2 24/5/2 20/6/2
f 25/7/3 22/8/3 24/9/3
f 23/10/4 18/11/4 22/12/4
f 24/13/5 18/14/5 20/15/5
f 21/16/6 23/17/6 25/18/6
f 19/1/1 21/19/1 20/2/1
f 21/4/2 25/20/2 24/5/2
f 25/7/3 23/21/3 22/8/3
f 23/10/4 19/22/4 18/11/4
f 24/13/5 22/23/5 18/14/5
f 21/16/6 19/24/6 23/17/6
s 1
f 1/25/7 2/26/6 3/27/8
f 3/27/8 2/26/6 4/28/9
f 4/28/9 2/26/6 5/29/10
f 5/29/10 2/26/6 6/30/11
f 6/30/11 2/26/6 7/31/12
f 7/31/12 2/26/6 8/32/13
f 8/32/13 2/26/6 9/33/14
f 9/33/14 2/26/6 10/34/15
f 10/34/15 2/26/6 11/35/16
f 11/35/16 2/26/6 12/36/17
f 12/36/17 2/26/6 13/37/18
f 13/37/18 2/26/6 14/38/19
f 14/38/19 2/26/6 15/39/20
f 15/39/20 2/26/6 16/40/21
f 16/40/21 2/26/6 17/41/22
f 17/41/22 2/26/6 1/25/7
f 11/42/16 13/43/18 17/44/22
f 17/44/22 1/45/7 3/46/8
f 3/46/8 4/47/9 5/48/10
f 5/48/10 6/49/11 9/50/14
f 7/51/12 8/52/13 9/50/14
f 9/50/14 10/53/15 11/42/16
f 11/42/16 12/54/17 13/43/18
f 13/43/18 14/55/19 15/56/20
f 15/56/20 16/57/21 17/44/22
f 17/44/22 3/46/8 5/48/10
f 6/49/11 7/51/12 9/50/14
f 9/50/14 11/42/16 17/44/22
f 13/43/18 15/56/20 17/44/22
f 17/44/22 5/48/10 9/50/14
