# Blender v2.79 (sub 0) OBJ File: 'rail.blend'
# www.blender.org
mtllib rail.mtl
o Cube.002
v -1.500000 0.000000 0.200000
v -1.500000 0.050000 0.200000
v -1.500000 0.000000 -0.200000
v -1.500000 0.050000 -0.200000
v 1.500000 0.000000 0.200000
v 1.500000 0.050000 0.200000
v 1.500000 0.000000 -0.200000
v 1.500000 0.050000 -0.200000
v -1.500000 0.000000 1.200000
v -1.500000 0.050000 1.200000
v -1.500000 0.000000 0.800000
v -1.500000 0.050000 0.800000
v 1.500000 0.000000 1.200000
v 1.500000 0.050000 1.200000
v 1.500000 0.000000 0.800000
v 1.500000 0.050000 0.800000
v -1.500000 0.000000 2.200000
v -1.500000 0.050000 2.200000
v -1.500000 0.000000 1.800000
v -1.500000 0.050000 1.800000
v 1.500000 0.000000 2.200000
v 1.500000 0.050000 2.200000
v 1.500000 0.000000 1.800000
v 1.500000 0.050000 1.800000
v -1.500000 0.000000 3.200000
v -1.500000 0.050000 3.200000
v -1.500000 0.000000 2.800000
v -1.500000 0.050000 2.800000
v 1.500000 0.000000 3.200000
v 1.500000 0.050000 3.200000
v 1.500000 0.000000 2.800000
v 1.500000 0.050000 2.800000
v -1.500000 0.000000 4.200000
v -1.500000 0.050000 4.200000
v -1.500000 0.000000 3.800000
v -1.500000 0.050000 3.800000
v 1.500000 0.000000 4.200000
v 1.500000 0.050000 4.200000
v 1.500000 0.000000 3.800000
v 1.500000 0.050000 3.800000
v -1.500000 0.000000 5.200000
v -1.500000 0.050000 5.200000
v -1.500000 0.000000 4.800000
v -1.500000 0.050000 4.800000
v 1.500000 0.000000 5.200000
v 1.500000 0.050000 5.200000
v 1.500000 0.000000 4.800000
v 1.500000 0.050000 4.800000
v -1.500000 0.000000 6.200000
v -1.500000 0.050000 6.200000
v -1.500000 0.000000 5.800000
v -1.500000 0.050000 5.800000
v 1.500000 0.000000 6.200000
v 1.500000 0.050000 6.200000
v 1.500000 0.000000 5.800000
v 1.500000 0.050000 5.800000
v -1.175000 0.000000 -7.999999
v -1.175000 0.000000 8.000000
v -1.325000 0.000000 7.999999
v -1.325000 0.000000 -8.000003
v -1.175000 0.100000 -7.999996
v -1.175000 0.100000 8.000005
v -1.325000 0.100000 7.999997
v -1.325000 0.100000 -8.000000
v -1.500000 0.000000 -0.800000
v -1.500000 0.050000 -0.800000
v -1.500000 0.000000 -1.200000
v -1.500000 0.050000 -1.200000
v 1.500000 -0.000000 -0.800000
v 1.500000 0.050000 -0.800000
v 1.500000 -0.000000 -1.200000
v 1.500000 0.050000 -1.200000
v 1.325000 0.000000 -7.999999
v 1.325000 0.000000 8.000000
v 1.175000 0.000000 7.999999
v 1.175000 0.000000 -8.000003
v 1.325000 0.100000 -7.999996
v 1.325000 0.100000 8.000005
v 1.175000 0.100000 7.999997
v 1.175000 0.100000 -8.000000
v -1.500000 0.000000 7.200000
v -1.500000 0.050000 7.200000
v -1.500000 0.000000 6.800000
v -1.500000 0.050000 6.800000
v 1.500000 0.000000 7.200000
v 1.500000 0.050000 7.200000
v 1.500000 0.000000 6.800000
v 1.500000 0.050000 6.800000
v -1.500000 0.000000 -3.800000
v -1.500000 0.050000 -3.800000
v -1.500000 0.000000 -4.200000
v -1.500000 0.050000 -4.200000
v 1.500000 0.000000 -3.800000
v 1.500000 0.050000 -3.800000
v 1.500000 0.000000 -4.200000
v 1.500000 0.050000 -4.200000
v -1.500000 0.000000 -2.800000
v -1.500000 0.050000 -2.800000
v -1.500000 0.000000 -3.200000
v -1.500000 0.050000 -3.200000
v 1.500000 0.000000 -2.800000
v 1.500000 0.050000 -2.800000
v 1.500000 0.000000 -3.200000
v 1.500000 0.050000 -3.200000
v -1.500000 0.000000 -1.800000
v -1.500000 0.050000 -1.800000
v -1.500000 0.000000 -2.200000
v -1.500000 0.050000 -2.200000
v 1.500000 0.000000 -1.800000
v 1.500000 0.050000 -1.800000
v 1.500000 0.000000 -2.200000
v 1.500000 0.050000 -2.200000
v -1.500000 0.000000 -4.800000
v -1.500000 0.050000 -4.800000
v -1.500000 0.000000 -5.200000
v -1.500000 0.050000 -5.200000
v 1.500000 0.000000 -4.800000
v 1.500000 0.050000 -4.800000
v 1.500000 0.000000 -5.200000
v 1.500000 0.050000 -5.200000
v -1.500000 0.000000 -5.800000
v -1.500000 0.050000 -5.800000
v -1.500000 0.000000 -6.200000
v -1.500000 0.050000 -6.200000
v 1.500000 0.000000 -5.800000
v 1.500000 0.050000 -5.800000
v 1.500000 0.000000 -6.200000
v 1.500000 0.050000 -6.200000
v -1.500000 0.000000 -6.800000
v -1.500000 0.050000 -6.800000
v -1.500000 0.000000 -7.200000
v -1.500000 0.050000 -7.200000
v 1.500000 0.000000 -6.800000
v 1.500000 0.050000 -6.800000
v 1.500000 0.000000 -7.200000
v 1.500000 0.050000 -7.200000
v -1.500000 0.000000 -7.800000
v -1.500000 0.050000 -7.800000
v -1.500000 0.000000 -8.200000
v -1.500000 0.050000 -8.200000
v 1.500000 0.000000 -7.800000
v 1.500000 0.050000 -7.800000
v 1.500000 0.000000 -8.200000
v 1.500000 0.050000 -8.200000
vt 1.000000 0.000000
vt 0.000000 1.000000
vt 0.000000 0.000000
vt 1.000000 0.000000
vt 0.000000 1.000000
vt 0.000000 0.000000
vt 1.000000 0.000000
vt 0.000000 1.000000
vt 0.000000 0.000000
vt 1.000000 0.000000
vt 0.000000 1.000000
vt 0.000000 0.000000
vt 1.000000 0.000000
vt 0.000000 1.000000
vt 0.000000 0.000000
vt 1.000000 0.000000
vt 0.000000 1.000000
vt 0.000000 0.000000
vt 1.000000 0.000000
vt 0.000000 1.000000
vt 0.000000 0.000000
vt 1.000000 0.000000
vt 0.000000 1.000000
vt 0.000000 0.000000
vt 1.000000 0.000000
vt 0.000000 1.000000
vt 0.000000 0.000000
vt 1.000000 0.000000
vt 0.000000 1.000000
vt 0.000000 0.000000
vt 1.000000 0.000000
vt 0.000000 1.000000
vt 0.000000 0.000000
vt 1.000000 0.000000
vt 0.000000 1.000000
vt 0.000000 0.000000
vt 1.000000 0.000000
vt 0.000000 1.000000
vt 0.000000 0.000000
vt 1.000000 0.000000
vt 0.000000 1.000000
vt 0.000000 0.000000
vt 1.000000 0.000000
vt 0.000000 1.000000
vt 0.000000 0.000000
vt 1.000000 0.000000
vt 0.000000 1.000000
vt 0.000000 0.000000
vt 1.000000 0.000000
vt 0.000000 1.000000
vt 0.000000 0.000000
vt 1.000000 0.000000
vt 0.000000 1.000000
vt 0.000000 0.000000
vt 1.000000 0.000000
vt 0.000000 1.000000
vt 0.000000 0.000000
vt 1.000000 0.000000
vt 0.000000 1.000000
vt 0.000000 0.000000
vt 1.000000 0.000000
vt 0.000000 1.000000
vt 0.000000 0.000000
vt 1.000000 0.000000
vt 0.000000 1.000000
vt 0.000000 0.000000
vt 1.000000 0.000000
vt 0.000000 1.000000
vt 0.000000 0.000000
vt 1.000000 0.000000
vt 0.000000 1.000000
vt 0.000000 0.000000
vt 1.000000 0.000000
vt 0.000000 1.000000
vt 0.000000 0.000000
vt 1.000000 0.000000
vt 0.000000 1.000000
vt 0.000000 0.000000
vt 1.000000 0.000000
vt 0.000000 1.000000
vt 0.000000 0.000000
vt 1.000000 0.000000
vt 0.000000 1.000000
vt 0.000000 0.000000
vt 1.000000 0.000000
vt 0.000000 1.000000
vt 0.000000 0.000000
vt 1.000000 0.000000
vt 0.000000 1.000000
vt 0.000000 0.000000
vt 1.000000 0.000000
vt 0.000000 1.000000
vt 0.000000 0.000000
vt 1.000000 0.000000
vt 0.000000 1.000000
vt 0.000000 0.000000
vt 1.000000 0.000000
vt 0.000000 1.000000
vt 0.000000 0.000000
vt 1.000000 0.000000
vt 0.000000 1.000000
vt 0.000000 0.000000
vt 1.000000 0.000000
vt 0.000000 1.000000
vt 0.000000 0.000000
vt 0.000000 0.000000
vt 1.000000 1.000000
vt 0.000000 1.000000
vt 0.000000 0.000000
vt 1.000000 1.000000
vt 0.000000 1.000000
vt 1.000000 0.000000
vt 0.000000 1.000000
vt 1.000000 0.000000
vt 0.000000 1.000000
vt 0.000000 0.000000
vt 0.000000 0.000000
vt 1.000000 1.000000
vt 1.000000 0.000000
vt 0.000000 1.000000
vt 1.000000 0.000000
vt 0.000000 1.000000
vt 0.000000 0.000000
vt 1.000000 0.000000
vt 0.000000 1.000000
vt 0.000000 0.000000
vt 1.000000 0.000000
vt 0.000000 1.000000
vt 0.000000 0.000000
vt 0.000000 0.000000
vt 1.000000 1.000000
vt 0.000000 1.000000
vt 1.000000 0.000000
vt 0.000000 1.000000
vt 0.000000 0.000000
vt 0.000000 0.000000
vt 1.000000 1.000000
vt 0.000000 1.000000
vt 0.000000 0.000000
vt 1.000000 1.000000
vt 0.000000 1.000000
vt 1.000000 0.000000
vt 0.000000 1.000000
vt 1.000000 0.000000
vt 0.000000 1.000000
vt 0.000000 0.000000
vt 0.000000 0.000000
vt 1.000000 1.000000
vt 1.000000 0.000000
vt 0.000000 1.000000
vt 1.000000 0.000000
vt 0.000000 1.000000
vt 0.000000 0.000000
vt 1.000000 0.000000
vt 0.000000 1.000000
vt 0.000000 0.000000
vt 1.000000 0.000000
vt 0.000000 1.000000
vt 0.000000 0.000000
vt 1.000000 0.000000
vt 0.000000 1.000000
vt 0.000000 0.000000
vt 1.000000 0.000000
vt 0.000000 1.000000
vt 0.000000 0.000000
vt 1.000000 0.000000
vt 0.000000 1.000000
vt 0.000000 0.000000
vt 1.000000 0.000000
vt 0.000000 1.000000
vt 0.000000 0.000000
vt 1.000000 0.000000
vt 0.000000 1.000000
vt 0.000000 0.000000
vt 1.000000 0.000000
vt 0.000000 1.000000
vt 0.000000 0.000000
vt 1.000000 0.000000
vt 0.000000 1.000000
vt 0.000000 0.000000
vt 1.000000 0.000000
vt 0.000000 1.000000
vt 0.000000 0.000000
vt 1.000000 0.000000
vt 0.000000 1.000000
vt 0.000000 0.000000
vt 1.000000 0.000000
vt 0.000000 1.000000
vt 0.000000 0.000000
vt 1.000000 0.000000
vt 0.000000 1.000000
vt 0.000000 0.000000
vt 1.000000 0.000000
vt 0.000000 1.000000
vt 0.000000 0.000000
vt 1.000000 0.000000
vt 0.000000 1.000000
vt 0.000000 0.000000
vt 1.000000 0.000000
vt 0.000000 1.000000
vt 0.000000 0.000000
vt 1.000000 0.000000
vt 0.000000 1.000000
vt 0.000000 0.000000
vt 1.000000 0.000000
vt 0.000000 1.000000
vt 0.000000 0.000000
vt 1.000000 0.000000
vt 0.000000 1.000000
vt 0.000000 0.000000
vt 1.000000 0.000000
vt 0.000000 1.000000
vt 0.000000 0.000000
vt 1.000000 0.000000
vt 0.000000 1.000000
vt 0.000000 0.000000
vt 1.000000 0.000000
vt 0.000000 1.000000
vt 0.000000 0.000000
vt 1.000000 0.000000
vt 0.000000 1.000000
vt 0.000000 0.000000
vt 1.000000 0.000000
vt 0.000000 1.000000
vt 0.000000 0.000000
vt 1.000000 0.000000
vt 0.000000 1.000000
vt 0.000000 0.000000
vt 1.000000 0.000000
vt 0.000000 1.000000
vt 0.000000 0.000000
vt 1.000000 0.000000
vt 0.000000 1.000000
vt 0.000000 0.000000
vt 1.000000 0.000000
vt 0.000000 1.000000
vt 0.000000 0.000000
vt 1.000000 0.000000
vt 0.000000 1.000000
vt 0.000000 0.000000
vt 1.000000 0.000000
vt 0.000000 1.000000
vt 0.000000 0.000000
vt 1.000000 0.000000
vt 0.000000 1.000000
vt 0.000000 0.000000
vt 1.000000 0.000000
vt 0.000000 1.000000
vt 0.000000 0.000000
vt 1.000000 0.000000
vt 0.000000 1.000000
vt 0.000000 0.000000
vt 1.000000 0.000000
vt 0.000000 1.000000
vt 0.000000 0.000000
vt 1.000000 0.000000
vt 0.000000 1.000000
vt 0.000000 0.000000
vt 1.000000 0.000000
vt 0.000000 1.000000
vt 0.000000 0.000000
vt 1.000000 0.000000
vt 0.000000 1.000000
vt 0.000000 0.000000
vt 1.000000 0.000000
vt 0.000000 1.000000
vt 0.000000 0.000000
vt 1.000000 0.000000
vt 0.000000 1.000000
vt 0.000000 0.000000
vt 1.000000 1.000000
vt 1.000000 1.000000
vt 1.000000 1.000000
vt 1.000000 1.000000
vt 1.000000 1.000000
vt 1.000000 1.000000
vt 1.000000 1.000000
vt 1.000000 1.000000
vt 1.000000 1.000000
vt 1.000000 1.000000
vt 1.000000 1.000000
vt 1.000000 1.000000
vt 1.000000 1.000000
vt 1.000000 1.000000
vt 1.000000 1.000000
vt 1.000000 1.000000
vt 1.000000 1.000000
vt 1.000000 1.000000
vt 1.000000 1.000000
vt 1.000000 1.000000
vt 1.000000 1.000000
vt 1.000000 1.000000
vt 1.000000 1.000000
vt 1.000000 1.000000
vt 1.000000 1.000000
vt 1.000000 1.000000
vt 1.000000 1.000000
vt 1.000000 1.000000
vt 1.000000 1.000000
vt 1.000000 1.000000
vt 1.000000 1.000000
vt 1.000000 1.000000
vt 1.000000 1.000000
vt 1.000000 1.000000
vt 1.000000 1.000000
vt 1.000000 0.000000
vt 1.000000 0.000000
vt 1.000000 1.000000
vt 1.000000 0.000000
vt 1.000000 1.000000
vt 1.000000 1.000000
vt 1.000000 1.000000
vt 1.000000 1.000000
vt 1.000000 0.000000
vt 1.000000 1.000000
vt 1.000000 0.000000
vt 1.000000 0.000000
vt 1.000000 1.000000
vt 1.000000 0.000000
vt 1.000000 1.000000
vt 1.000000 1.000000
vt 1.000000 1.000000
vt 1.000000 1.000000
vt 1.000000 1.000000
vt 1.000000 1.000000
vt 1.000000 1.000000
vt 1.000000 1.000000
vt 1.000000 1.000000
vt 1.000000 1.000000
vt 1.000000 1.000000
vt 1.000000 1.000000
vt 1.000000 1.000000
vt 1.000000 1.000000
vt 1.000000 1.000000
vt 1.000000 1.000000
vt 1.000000 1.000000
vt 1.000000 1.000000
vt 1.000000 1.000000
vt 1.000000 1.000000
vt 1.000000 1.000000
vt 1.000000 1.000000
vt 1.000000 1.000000
vt 1.000000 1.000000
vt 1.000000 1.000000
vt 1.000000 1.000000
vt 1.000000 1.000000
vt 1.000000 1.000000
vt 1.000000 1.000000
vt 1.000000 1.000000
vt 1.000000 1.000000
vt 1.000000 1.000000
vt 1.000000 1.000000
vt 1.000000 1.000000
vt 1.000000 1.000000
vt 1.000000 1.000000
vt 1.000000 1.000000
vt 1.000000 1.000000
vt 1.000000 1.000000
vt 1.000000 1.000000
vt 1.000000 1.000000
vn -1.0000 0.0000 0.0000
vn 0.0000 0.0000 -1.0000
vn 1.0000 0.0000 0.0000
vn 0.0000 0.0000 1.0000
vn 0.0000 -1.0000 0.0000
vn 0.0000 1.0000 0.0000
usemtl None
s off
f 2/1/1 3/2/1 1/3/1
f 4/4/2 7/5/2 3/6/2
f 8/7/3 5/8/3 7/9/3
f 6/10/4 1/11/4 5/12/4
f 7/13/5 1/11/5 3/6/5
f 4/4/6 6/14/6 8/15/6
f 10/16/1 11/17/1 9/18/1
f 12/19/2 15/20/2 11/21/2
f 16/22/3 13/23/3 15/24/3
f 14/25/4 9/26/4 13/27/4
f 15/28/5 9/26/5 11/21/5
f 12/19/6 14/29/6 16/30/6
f 18/31/1 19/32/1 17/33/1
f 20/34/2 23/35/2 19/36/2
f 24/37/3 21/38/3 23/39/3
f 22/40/4 17/41/4 21/42/4
f 23/43/5 17/41/5 19/36/5
f 20/34/6 22/44/6 24/45/6
f 26/46/1 27/47/1 25/48/1
f 28/49/2 31/50/2 27/51/2
f 32/52/3 29/53/3 31/54/3
f 30/55/4 25/56/4 29/57/4
f 31/58/5 25/56/5 27/51/5
f 28/49/6 30/59/6 32/60/6
f 34/61/1 35/62/1 33/63/1
f 36/64/2 39/65/2 35/66/2
f 40/67/3 37/68/3 39/69/3
f 38/70/4 33/71/4 37/72/4
f 39/73/5 33/71/5 35/66/5
f 36/64/6 38/74/6 40/75/6
f 42/76/1 43/77/1 41/78/1
f 44/79/2 47/80/2 43/81/2
f 48/82/3 45/83/3 47/84/3
f 46/85/4 41/86/4 45/87/4
f 47/88/5 41/86/5 43/81/5
f 44/79/6 46/89/6 48/90/6
f 50/91/1 51/92/1 49/93/1
f 52/94/2 55/95/2 51/96/2
f 56/97/3 53/98/3 55/99/3
f 54/100/4 49/101/4 53/102/4
f 55/103/5 49/101/5 51/96/5
f 52/94/6 54/104/6 56/105/6
f 57/106/5 59/107/5 60/108/5
f 61/109/6 63/110/6 62/111/6
f 61/112/3 58/113/3 57/106/3
f 62/114/4 59/115/4 58/116/4
f 59/117/1 64/118/1 60/108/1
f 57/119/2 64/120/2 61/109/2
f 66/121/1 67/122/1 65/123/1
f 68/124/2 71/125/2 67/126/2
f 72/127/3 69/128/3 71/129/3
f 69/130/4 66/131/4 65/132/4
f 71/133/5 65/132/5 67/126/5
f 68/124/6 70/134/6 72/135/6
f 73/136/5 75/137/5 76/138/5
f 77/139/6 79/140/6 78/141/6
f 77/142/3 74/143/3 73/136/3
f 78/144/4 75/145/4 74/146/4
f 75/147/1 80/148/1 76/138/1
f 73/149/2 80/150/2 77/139/2
f 82/151/1 83/152/1 81/153/1
f 84/154/2 87/155/2 83/156/2
f 88/157/3 85/158/3 87/159/3
f 86/160/4 81/161/4 85/162/4
f 87/163/5 81/161/5 83/156/5
f 84/154/6 86/164/6 88/165/6
f 90/166/1 91/167/1 89/168/1
f 92/169/2 95/170/2 91/171/2
f 96/172/3 93/173/3 95/174/3
f 94/175/4 89/176/4 93/177/4
f 95/178/5 89/176/5 91/171/5
f 92/169/6 94/179/6 96/180/6
f 98/181/1 99/182/1 97/183/1
f 100/184/2 103/185/2 99/186/2
f 104/187/3 101/188/3 103/189/3
f 102/190/4 97/191/4 101/192/4
f 103/193/5 97/191/5 99/186/5
f 100/184/6 102/194/6 104/195/6
f 106/196/1 107/197/1 105/198/1
f 108/199/2 111/200/2 107/201/2
f 112/202/3 109/203/3 111/204/3
f 110/205/4 105/206/4 109/207/4
f 111/208/5 105/206/5 107/201/5
f 108/199/6 110/209/6 112/210/6
f 114/211/1 115/212/1 113/213/1
f 116/214/2 119/215/2 115/216/2
f 120/217/3 117/218/3 119/219/3
f 118/220/4 113/221/4 117/222/4
f 119/223/5 113/221/5 115/216/5
f 116/214/6 118/224/6 120/225/6
f 122/226/1 123/227/1 121/228/1
f 124/229/2 127/230/2 123/231/2
f 128/232/3 125/233/3 127/234/3
f 126/235/4 121/236/4 125/237/4
f 127/238/5 121/236/5 123/231/5
f 124/229/6 126/239/6 128/240/6
f 130/241/1 131/242/1 129/243/1
f 132/244/2 135/245/2 131/246/2
f 136/247/3 133/248/3 135/249/3
f 134/250/4 129/251/4 133/252/4
f 135/253/5 129/251/5 131/246/5
f 132/244/6 134/254/6 136/255/6
f 138/256/1 139/257/1 137/258/1
f 140/259/2 143/260/2 139/261/2
f 144/262/3 141/263/3 143/264/3
f 142/265/4 137/266/4 141/267/4
f 143/268/5 137/266/5 139/261/5
f 140/259/6 142/269/6 144/270/6
f 2/1/1 4/271/1 3/2/1
f 4/4/2 8/272/2 7/5/2
f 8/7/3 6/273/3 5/8/3
f 6/10/4 2/274/4 1/11/4
f 7/13/5 5/275/5 1/11/5
f 4/4/6 2/274/6 6/14/6
f 10/16/1 12/276/1 11/17/1
f 12/19/2 16/277/2 15/20/2
f 16/22/3 14/278/3 13/23/3
f 14/25/4 10/279/4 9/26/4
f 15/28/5 13/280/5 9/26/5
f 12/19/6 10/279/6 14/29/6
f 18/31/1 20/281/1 19/32/1
f 20/34/2 24/282/2 23/35/2
f 24/37/3 22/283/3 21/38/3
f 22/40/4 18/284/4 17/41/4
f 23/43/5 21/285/5 17/41/5
f 20/34/6 18/284/6 22/44/6
f 26/46/1 28/286/1 27/47/1
f 28/49/2 32/287/2 31/50/2
f 32/52/3 30/288/3 29/53/3
f 30/55/4 26/289/4 25/56/4
f 31/58/5 29/290/5 25/56/5
f 28/49/6 26/289/6 30/59/6
f 34/61/1 36/291/1 35/62/1
f 36/64/2 40/292/2 39/65/2
f 40/67/3 38/293/3 37/68/3
f 38/70/4 34/294/4 33/71/4
f 39/73/5 37/295/5 33/71/5
f 36/64/6 34/294/6 38/74/6
f 42/76/1 44/296/1 43/77/1
f 44/79/2 48/297/2 47/80/2
f 48/82/3 46/298/3 45/83/3
f 46/85/4 42/299/4 41/86/4
f 47/88/5 45/300/5 41/86/5
f 44/79/6 42/299/6 46/89/6
f 50/91/1 52/301/1 51/92/1
f 52/94/2 56/302/2 55/95/2
f 56/97/3 54/303/3 53/98/3
f 54/100/4 50/304/4 49/101/4
f 55/103/5 53/305/5 49/101/5
f 52/94/6 50/304/6 54/104/6
f 57/106/5 58/306/5 59/107/5
f 61/109/6 64/307/6 63/110/6
f 61/112/3 62/308/3 58/113/3
f 62/114/4 63/110/4 59/115/4
f 59/117/1 63/309/1 64/118/1
f 57/119/2 60/310/2 64/120/2
f 66/121/1 68/311/1 67/122/1
f 68/124/2 72/312/2 71/125/2
f 72/127/3 70/313/3 69/128/3
f 69/130/4 70/314/4 66/131/4
f 71/133/5 69/315/5 65/132/5
f 68/124/6 66/131/6 70/134/6
f 73/136/5 74/316/5 75/137/5
f 77/139/6 80/317/6 79/140/6
f 77/142/3 78/318/3 74/143/3
f 78/144/4 79/140/4 75/145/4
f 75/147/1 79/319/1 80/148/1
f 73/149/2 76/320/2 80/150/2
f 82/151/1 84/321/1 83/152/1
f 84/154/2 88/322/2 87/155/2
f 88/157/3 86/323/3 85/158/3
f 86/160/4 82/324/4 81/161/4
f 87/163/5 85/325/5 81/161/5
f 84/154/6 82/324/6 86/164/6
f 90/166/1 92/326/1 91/167/1
f 92/169/2 96/327/2 95/170/2
f 96/172/3 94/328/3 93/173/3
f 94/175/4 90/329/4 89/176/4
f 95/178/5 93/330/5 89/176/5
f 92/169/6 90/329/6 94/179/6
f 98/181/1 100/331/1 99/182/1
f 100/184/2 104/332/2 103/185/2
f 104/187/3 102/333/3 101/188/3
f 102/190/4 98/334/4 97/191/4
f 103/193/5 101/335/5 97/191/5
f 100/184/6 98/334/6 102/194/6
f 106/196/1 108/336/1 107/197/1
f 108/199/2 112/337/2 111/200/2
f 112/202/3 110/338/3 109/203/3
f 110/205/4 106/339/4 105/206/4
f 111/208/5 109/340/5 105/206/5
f 108/199/6 106/339/6 110/209/6
f 114/211/1 116/341/1 115/212/1
f 116/214/2 120/342/2 119/215/2
f 120/217/3 118/343/3 117/218/3
f 118/220/4 114/344/4 113/221/4
f 119/223/5 117/345/5 113/221/5
f 116/214/6 114/344/6 118/224/6
f 122/226/1 124/346/1 123/227/1
f 124/229/2 128/347/2 127/230/2
f 128/232/3 126/348/3 125/233/3
f 126/235/4 122/349/4 121/236/4
f 127/238/5 125/350/5 121/236/5
f 124/229/6 122/349/6 126/239/6
f 130/241/1 132/351/1 131/242/1
f 132/244/2 136/352/2 135/245/2
f 136/247/3 134/353/3 133/248/3
f 134/250/4 130/354/4 129/251/4
f 135/253/5 133/355/5 129/251/5
f 132/244/6 130/354/6 134/254/6
f 138/256/1 140/356/1 139/257/1
f 140/259/2 144/357/2 143/260/2
f 144/262/3 142/358/3 141/263/3
f 142/265/4 138/359/4 137/266/4
f 143/268/5 141/360/5 137/266/5
f 140/259/6 138/359/6 142/269/6
