# Blender v2.79 (sub 0) OBJ File: 'rail.blend'
# www.blender.org
mtllib rail.mtl
o Cube.017
v -1.500000 0.000000 7.200000
v -1.500000 0.050000 7.200000
v -1.500000 0.000000 6.800000
v -1.500000 0.050000 6.800000
v 1.500000 0.000000 7.200000
v 1.500000 0.050000 7.200000
v 1.500000 0.000000 6.800000
v 1.500000 0.050000 6.800000
v -1.500000 0.000000 0.200001
v -1.500000 0.050000 0.200001
v -1.500000 0.000000 -0.199999
v -1.500000 0.050000 -0.199999
v 1.500000 0.000000 0.200001
v 1.500000 0.050000 0.200001
v 1.500000 0.000000 -0.199999
v 1.500000 0.050000 -0.199999
v -1.175000 0.000000 -7.999997
v -1.175000 0.000000 8.000000
v -1.325000 0.000000 7.999999
v -1.325000 0.000000 -8.000002
v -1.175000 0.100000 -7.999994
v -1.175000 0.100000 8.000005
v -1.325000 0.100000 7.999997
v -1.325000 0.100000 -7.999999
v -1.500000 0.000000 -0.799999
v -1.500000 0.050000 -0.799999
v -1.500000 0.000000 -1.200000
v -1.500000 0.050000 -1.200000
v 1.500000 0.000000 -0.799999
v 1.500000 0.050000 -0.799999
v 1.500000 0.000000 -1.200000
v 1.500000 0.050000 -1.200000
v -1.500000 0.000000 -3.799998
v -1.500000 0.050000 -3.799998
v -1.500000 0.000000 -4.199999
v -1.500000 0.050000 -4.199999
v 1.500000 0.000000 -3.799998
v 1.500000 0.050000 -3.799998
v 1.500000 0.000000 -4.199999
v 1.500000 0.050000 -4.199999
v -1.500000 0.000000 -2.799998
v -1.500000 0.050000 -2.799998
v -1.500000 0.000000 -3.199999
v -1.500000 0.050000 -3.199999
v 1.500000 0.000000 -2.799998
v 1.500000 0.050000 -2.799998
v 1.500000 0.000000 -3.199999
v 1.500000 0.050000 -3.199999
v -1.500000 0.000000 -1.799999
v -1.500000 0.050000 -1.799999
v -1.500000 0.000000 -2.200000
v -1.500000 0.050000 -2.200000
v 1.500000 0.000000 -1.799999
v 1.500000 0.050000 -1.799999
v 1.500000 0.000000 -2.200000
v 1.500000 0.050000 -2.200000
v -1.500000 0.000000 -4.799998
v -1.500000 0.050000 -4.799998
v -1.500000 0.000000 -5.199999
v -1.500000 0.050000 -5.199999
v 1.500000 0.000000 -4.799998
v 1.500000 0.050000 -4.799998
v 1.500000 0.000000 -5.199999
v 1.500000 0.050000 -5.199999
v -1.500000 0.000000 -5.799998
v -1.500000 0.050000 -5.799998
v -1.500000 0.000000 -6.199999
v -1.500000 0.050000 -6.199999
v 1.500000 0.000000 -5.799998
v 1.500000 0.050000 -5.799998
v 1.500000 0.000000 -6.199999
v 1.500000 0.050000 -6.199999
v -1.500000 0.000000 -6.799998
v -1.500000 0.050000 -6.799998
v -1.500000 0.000000 -7.199999
v -1.500000 0.050000 -7.199999
v 1.500000 0.000000 -6.799998
v 1.500000 0.050000 -6.799998
v 1.500000 0.000000 -7.199999
v 1.500000 0.050000 -7.199999
v -1.500000 0.000000 -7.799998
v -1.500000 0.050000 -7.799998
v -1.500000 0.000000 -8.199999
v -1.500000 0.050000 -8.199999
v 1.500000 0.000000 -7.799998
v 1.500000 0.050000 -7.799998
v 1.500000 0.000000 -8.199999
v 1.500000 0.050000 -8.199999
v -1.500000 0.000000 1.200001
v -1.500000 0.050000 1.200001
v -1.500000 0.000000 0.800001
v -1.500000 0.050000 0.800001
v 1.500000 0.000000 1.200001
v 1.500000 0.050000 1.200001
v 1.500000 0.000000 0.800001
v 1.500000 0.050000 0.800001
v -1.500000 0.000000 2.200001
v -1.500000 0.050000 2.200001
v -1.500000 0.000000 1.800001
v -1.500000 0.050000 1.800001
v 1.500000 0.000000 2.200001
v 1.500000 0.050000 2.200001
v 1.500000 0.000000 1.800001
v 1.500000 0.050000 1.800001
v -1.500000 0.000000 3.200000
v -1.500000 0.050000 3.200000
v -1.500000 0.000000 2.800000
v -1.500000 0.050000 2.800000
v 1.500000 0.000000 3.200000
v 1.500000 0.050000 3.200000
v 1.500000 0.000000 2.800000
v 1.500000 0.050000 2.800000
v -1.500000 0.000000 4.200000
v -1.500000 0.050000 4.200000
v -1.500000 0.000000 3.800000
v -1.500000 0.050000 3.800000
v 1.500000 0.000000 4.200000
v 1.500000 0.050000 4.200000
v 1.500000 0.000000 3.800000
v 1.500000 0.050000 3.800000
v -1.500000 0.000000 5.200000
v -1.500000 0.050000 5.200000
v -1.500000 0.000000 4.800000
v -1.500000 0.050000 4.800000
v 1.500000 0.000000 5.200000
v 1.500000 0.050000 5.200000
v 1.500000 0.000000 4.800000
v 1.500000 0.050000 4.800000
v -1.500000 0.000000 6.200000
v -1.500000 0.050000 6.200000
v -1.500000 0.000000 5.800000
v -1.500000 0.050000 5.800000
v 1.500000 0.000000 6.200000
v 1.500000 0.050000 6.200000
v 1.500000 0.000000 5.800000
v 1.500000 0.050000 5.800000
v 1.325000 0.000000 -7.999997
v 1.325000 0.000000 8.000000
v 1.175000 0.000000 7.999999
v 1.175000 0.000000 -8.000002
v 1.325000 0.100000 -7.999994
v 1.325000 0.100000 8.000005
v 1.175000 0.100000 7.999997
v 1.175000 0.100000 -7.999999
vt 0.701454 0.619901
vt 0.705731 0.595179
vt 0.705731 0.619901
vt 0.672370 0.584054
vt 0.676647 0.398640
vt 0.676647 0.584054
vt 0.771600 0.619901
vt 0.775877 0.595179
vt 0.775877 0.619901
vt 0.988024 0.584054
vt 0.992301 0.398640
vt 0.992301 0.584054
vt 0.464500 0.398640
vt 0.498717 0.584054
vt 0.464500 0.584054
vt 0.449102 0.584054
vt 0.414885 0.398640
vt 0.449102 0.398640
vt 0.443970 0.619901
vt 0.448247 0.595179
vt 0.448247 0.619901
vt 0.850299 0.584054
vt 0.854577 0.398640
vt 0.854577 0.584054
vt 0.563730 0.619901
vt 0.568007 0.595179
vt 0.568007 0.619901
vt 0.909324 0.584054
vt 0.913601 0.398640
vt 0.913601 0.584054
vt 0.216425 0.398640
vt 0.250642 0.584054
vt 0.216425 0.584054
vt 0.597947 0.190976
vt 0.563730 0.005562
vt 0.597947 0.005562
vt 0.048760 0.005563
vt 0.035929 0.994437
vt 0.035928 0.005562
vt 0.064158 0.005563
vt 0.076990 0.994437
vt 0.064158 0.994438
vt 0.168521 0.994437
vt 0.177075 0.005563
vt 0.177075 0.994438
vt 0.799829 0.595179
vt 0.791275 0.604450
vt 0.791275 0.595179
vt 0.153123 0.994437
vt 0.144569 0.005563
vt 0.153123 0.005562
vt 0.756202 0.595179
vt 0.747648 0.604450
vt 0.747648 0.595179
vt 0.851155 0.279975
vt 0.855432 0.255253
vt 0.855432 0.279975
vt 0.831480 0.387515
vt 0.835757 0.202101
vt 0.835757 0.387515
vt 0.384945 0.619901
vt 0.389222 0.595179
vt 0.389222 0.619901
vt 0.928999 0.584054
vt 0.933276 0.398640
vt 0.933276 0.584054
vt 0.464500 0.005562
vt 0.498718 0.190976
vt 0.464500 0.190976
vt 0.300258 0.190976
vt 0.266040 0.005562
vt 0.300257 0.005562
vt 0.404620 0.619901
vt 0.408897 0.595179
vt 0.408897 0.619901
vt 0.712575 0.584054
vt 0.716852 0.398640
vt 0.716852 0.584054
vt 0.424295 0.619901
vt 0.428572 0.595179
vt 0.428572 0.619901
vt 0.851155 0.190977
vt 0.855432 0.005562
vt 0.855432 0.190976
vt 0.563730 0.202101
vt 0.597947 0.387515
vt 0.563730 0.387515
vt 0.300257 0.387515
vt 0.266040 0.202101
vt 0.300257 0.202101
vt 0.851155 0.315822
vt 0.855432 0.291100
vt 0.855432 0.315822
vt 0.816082 0.005562
vt 0.811805 0.190976
vt 0.811805 0.005562
vt 0.851155 0.387515
vt 0.855432 0.362793
vt 0.855432 0.387515
vt 0.751925 0.584054
vt 0.756202 0.398640
vt 0.756202 0.584054
vt 0.399488 0.190976
vt 0.365270 0.005562
vt 0.399487 0.005562
vt 0.315655 0.005562
vt 0.349873 0.190976
vt 0.315655 0.190976
vt 0.266040 0.619901
vt 0.270317 0.595179
vt 0.270317 0.619901
vt 0.736527 0.398640
vt 0.732250 0.584054
vt 0.732250 0.398640
vt 0.851155 0.244128
vt 0.855432 0.219406
vt 0.855432 0.244128
vt 0.949530 0.190977
vt 0.953807 0.005562
vt 0.953807 0.190976
vt 0.449103 0.190976
vt 0.414885 0.005562
vt 0.449102 0.005562
vt 0.216425 0.005562
vt 0.250642 0.190976
vt 0.216425 0.190976
vt 0.216425 0.619901
vt 0.220702 0.595179
vt 0.220702 0.619901
vt 0.652695 0.584054
vt 0.656972 0.398640
vt 0.656972 0.584054
vt 0.851155 0.351669
vt 0.855432 0.326947
vt 0.855432 0.351669
vt 0.870830 0.190977
vt 0.875107 0.005562
vt 0.875107 0.190977
vt 0.697177 0.190976
vt 0.662960 0.005562
vt 0.697177 0.005562
vt 0.365270 0.202101
vt 0.399487 0.387515
vt 0.365270 0.387515
vt 0.236100 0.619901
vt 0.240377 0.595179
vt 0.240377 0.619901
vt 0.810950 0.584054
vt 0.815227 0.398640
vt 0.815227 0.584054
vt 0.344740 0.619901
vt 0.349017 0.595179
vt 0.349017 0.619901
vt 0.968349 0.584054
vt 0.972626 0.398640
vt 0.972626 0.584054
vt 0.449102 0.387515
vt 0.414885 0.202101
vt 0.449102 0.202101
vt 0.514115 0.202101
vt 0.548332 0.387515
vt 0.514115 0.387515
vt 0.305390 0.619901
vt 0.309667 0.595179
vt 0.309667 0.619901
vt 0.613345 0.584054
vt 0.617622 0.398640
vt 0.617622 0.584054
vt 0.642430 0.619901
vt 0.646707 0.595179
vt 0.646707 0.619901
vt 0.869974 0.584054
vt 0.874252 0.398640
vt 0.874252 0.584054
vt 0.613345 0.202101
vt 0.647562 0.387515
vt 0.613345 0.387515
vt 0.349872 0.387515
vt 0.315655 0.202101
vt 0.349872 0.202101
vt 0.285715 0.619901
vt 0.289992 0.595179
vt 0.289992 0.619901
vt 0.633020 0.584054
vt 0.637297 0.398640
vt 0.637297 0.584054
vt 0.365270 0.619901
vt 0.369547 0.595179
vt 0.369547 0.619901
vt 0.890505 0.387515
vt 0.894782 0.202101
vt 0.894782 0.387515
vt 0.548333 0.190976
vt 0.514115 0.005562
vt 0.548333 0.005562
vt 0.662960 0.202101
vt 0.697177 0.387515
vt 0.662960 0.387515
vt 0.464500 0.619901
vt 0.468777 0.595179
vt 0.468777 0.619901
vt 0.831480 0.190976
vt 0.835757 0.005562
vt 0.835757 0.190976
vt 0.543200 0.619901
vt 0.547477 0.595179
vt 0.547477 0.619901
vt 0.910180 0.190977
vt 0.914457 0.005562
vt 0.914457 0.190977
vt 0.762190 0.005562
vt 0.796407 0.190976
vt 0.762190 0.190976
vt 0.250642 0.387515
vt 0.216425 0.202101
vt 0.250642 0.202101
vt 0.603080 0.619901
vt 0.607357 0.595179
vt 0.607357 0.619901
vt 0.890505 0.190976
vt 0.894782 0.005562
vt 0.894782 0.190976
vt 0.681779 0.619901
vt 0.686056 0.595179
vt 0.686056 0.619901
vt 0.889649 0.584054
vt 0.893926 0.398640
vt 0.893927 0.584054
vt 0.746792 0.387515
vt 0.712575 0.202101
vt 0.746792 0.202101
vt 0.746792 0.190976
vt 0.712575 0.005562
vt 0.746792 0.005562
vt 0.503850 0.619901
vt 0.508127 0.595179
vt 0.508127 0.619901
vt 0.834902 0.398640
vt 0.830625 0.584054
vt 0.830625 0.398640
vt 0.583405 0.619901
vt 0.587682 0.595179
vt 0.587682 0.619901
vt 0.771600 0.584054
vt 0.775877 0.398640
vt 0.775877 0.584054
vt 0.647562 0.190976
vt 0.613345 0.005562
vt 0.647562 0.005562
vt 0.464500 0.202101
vt 0.498717 0.387515
vt 0.464500 0.387515
vt 0.662104 0.619901
vt 0.666382 0.595179
vt 0.666382 0.619901
vt 0.816082 0.202101
vt 0.811805 0.387515
vt 0.811805 0.202101
vt 0.622755 0.619901
vt 0.627032 0.595179
vt 0.627032 0.619901
vt 0.948674 0.584054
vt 0.952951 0.398640
vt 0.952951 0.584054
vt 0.365270 0.398640
vt 0.399487 0.584054
vt 0.365270 0.584054
vt 0.349872 0.584054
vt 0.315655 0.398640
vt 0.349872 0.398640
vt 0.523525 0.619901
vt 0.527802 0.595179
vt 0.527802 0.619901
vt 0.692045 0.584054
vt 0.696322 0.398640
vt 0.696322 0.584054
vt 0.325065 0.619901
vt 0.329342 0.595179
vt 0.329342 0.619901
vt 0.969204 0.190976
vt 0.973482 0.005562
vt 0.973482 0.190977
vt 0.300257 0.584054
vt 0.266040 0.398640
vt 0.300257 0.398640
vt 0.762190 0.202101
vt 0.796407 0.387515
vt 0.762190 0.387515
vt 0.484175 0.619901
vt 0.488452 0.595179
vt 0.488452 0.619901
vt 0.791275 0.584054
vt 0.795552 0.398640
vt 0.795552 0.584054
vt 0.721129 0.619901
vt 0.725406 0.595179
vt 0.725406 0.619901
vt 0.929855 0.190976
vt 0.934132 0.005562
vt 0.934132 0.190977
vt 0.597947 0.584054
vt 0.563730 0.398640
vt 0.597947 0.398640
vt 0.514115 0.398640
vt 0.548332 0.584054
vt 0.514115 0.584054
vt 0.020530 0.005563
vt 0.007699 0.994437
vt 0.007699 0.005562
vt 0.092387 0.005563
vt 0.105219 0.994437
vt 0.092387 0.994438
vt 0.192473 0.994437
vt 0.201027 0.005563
vt 0.201027 0.994438
vt 0.847733 0.595179
vt 0.839179 0.604450
vt 0.839179 0.595179
vt 0.129171 0.994437
vt 0.120617 0.005563
vt 0.129171 0.005562
vt 0.823781 0.595179
vt 0.815227 0.604450
vt 0.815227 0.595179
vt 0.701454 0.595179
vt 0.672370 0.398640
vt 0.771600 0.595179
vt 0.988024 0.398640
vt 0.498717 0.398640
vt 0.414885 0.584054
vt 0.443970 0.595179
vt 0.850299 0.398640
vt 0.563730 0.595179
vt 0.909324 0.398640
vt 0.250642 0.398640
vt 0.563730 0.190976
vt 0.048760 0.994437
vt 0.076989 0.005562
vt 0.168521 0.005562
vt 0.799829 0.604450
vt 0.144569 0.994437
vt 0.756202 0.604450
vt 0.851155 0.255253
vt 0.831480 0.202101
vt 0.384945 0.595179
vt 0.928999 0.398640
vt 0.498718 0.005562
vt 0.266040 0.190976
vt 0.404620 0.595179
vt 0.712575 0.398640
vt 0.424295 0.595179
vt 0.851155 0.005562
vt 0.597947 0.202101
vt 0.266040 0.387515
vt 0.851155 0.291100
vt 0.816082 0.190976
vt 0.851155 0.362793
vt 0.751925 0.398640
vt 0.365270 0.190976
vt 0.349872 0.005562
vt 0.266040 0.595179
vt 0.736527 0.584054
vt 0.851155 0.219406
vt 0.949530 0.005562
vt 0.414885 0.190976
vt 0.250642 0.005562
vt 0.216425 0.595179
vt 0.652695 0.398640
vt 0.851155 0.326947
vt 0.870830 0.005562
vt 0.662960 0.190976
vt 0.399487 0.202101
vt 0.236100 0.595179
vt 0.810950 0.398640
vt 0.344740 0.595179
vt 0.968349 0.398640
vt 0.414885 0.387515
vt 0.548332 0.202101
vt 0.305390 0.595179
vt 0.613345 0.398640
vt 0.642430 0.595179
vt 0.869974 0.398640
vt 0.647562 0.202101
vt 0.315655 0.387515
vt 0.285715 0.595179
vt 0.633020 0.398640
vt 0.365270 0.595179
vt 0.890505 0.202101
vt 0.514115 0.190976
vt 0.697177 0.202101
vt 0.464500 0.595179
vt 0.831480 0.005562
vt 0.543200 0.595179
vt 0.910180 0.005562
vt 0.796407 0.005562
vt 0.216425 0.387515
vt 0.603080 0.595179
vt 0.890505 0.005562
vt 0.681779 0.595179
vt 0.889649 0.398640
vt 0.712575 0.387515
vt 0.712575 0.190976
vt 0.503850 0.595179
vt 0.834902 0.584054
vt 0.583405 0.595179
vt 0.771600 0.398640
vt 0.613345 0.190976
vt 0.498717 0.202101
vt 0.662104 0.595179
vt 0.816082 0.387515
vt 0.622755 0.595179
vt 0.948674 0.398640
vt 0.399487 0.398640
vt 0.315655 0.584054
vt 0.523525 0.595179
vt 0.692045 0.398640
vt 0.325065 0.595179
vt 0.969204 0.005562
vt 0.266040 0.584054
vt 0.796407 0.202101
vt 0.484175 0.595179
vt 0.791275 0.398640
vt 0.721129 0.595179
vt 0.929855 0.005562
vt 0.563730 0.584054
vt 0.548332 0.398640
vt 0.020531 0.994437
vt 0.105219 0.005562
vt 0.192473 0.005562
vt 0.847733 0.604450
vt 0.120617 0.994437
vt 0.823781 0.604450
vn -1.0000 0.0000 0.0000
vn 0.0000 0.0000 -1.0000
vn 1.0000 0.0000 0.0000
vn 0.0000 0.0000 1.0000
vn 0.0000 -1.0000 0.0000
vn 0.0000 1.0000 0.0000
usemtl None
s off
f 2/1/1 3/2/1 1/3/1
f 4/4/2 7/5/2 3/6/2
f 8/7/3 5/8/3 7/9/3
f 6/10/4 1/11/4 5/12/4
f 7/13/5 1/14/5 3/15/5
f 4/16/6 6/17/6 8/18/6
f 10/19/1 11/20/1 9/21/1
f 12/22/2 15/23/2 11/24/2
f 16/25/3 13/26/3 15/27/3
f 14/28/4 9/29/4 13/30/4
f 15/31/5 9/32/5 11/33/5
f 12/34/6 14/35/6 16/36/6
f 17/37/5 19/38/5 20/39/5
f 21/40/6 23/41/6 22/42/6
f 21/43/3 18/44/3 17/45/3
f 22/46/4 19/47/4 18/48/4
f 19/49/1 24/50/1 20/51/1
f 17/52/2 24/53/2 21/54/2
f 26/55/1 27/56/1 25/57/1
f 28/58/2 31/59/2 27/60/2
f 32/61/3 29/62/3 31/63/3
f 30/64/4 25/65/4 29/66/4
f 31/67/5 25/68/5 27/69/5
f 28/70/6 30/71/6 32/72/6
f 34/73/1 35/74/1 33/75/1
f 36/76/2 39/77/2 35/78/2
f 40/79/3 37/80/3 39/81/3
f 38/82/4 33/83/4 37/84/4
f 39/85/5 33/86/5 35/87/5
f 36/88/6 38/89/6 40/90/6
f 42/91/1 43/92/1 41/93/1
f 44/94/2 47/95/2 43/96/2
f 48/97/3 45/98/3 47/99/3
f 46/100/4 41/101/4 45/102/4
f 47/103/5 41/104/5 43/105/5
f 44/106/6 46/107/6 48/108/6
f 50/109/1 51/110/1 49/111/1
f 52/112/2 55/113/2 51/114/2
f 56/115/3 53/116/3 55/117/3
f 54/118/4 49/119/4 53/120/4
f 55/121/5 49/122/5 51/123/5
f 52/124/6 54/125/6 56/126/6
f 58/127/1 59/128/1 57/129/1
f 60/130/2 63/131/2 59/132/2
f 64/133/3 61/134/3 63/135/3
f 62/136/4 57/137/4 61/138/4
f 63/139/5 57/140/5 59/141/5
f 60/142/6 62/143/6 64/144/6
f 66/145/1 67/146/1 65/147/1
f 68/148/2 71/149/2 67/150/2
f 72/151/3 69/152/3 71/153/3
f 70/154/4 65/155/4 69/156/4
f 71/157/5 65/158/5 67/159/5
f 68/160/6 70/161/6 72/162/6
f 74/163/1 75/164/1 73/165/1
f 76/166/2 79/167/2 75/168/2
f 80/169/3 77/170/3 79/171/3
f 78/172/4 73/173/4 77/174/4
f 79/175/5 73/176/5 75/177/5
f 76/178/6 78/179/6 80/180/6
f 82/181/1 83/182/1 81/183/1
f 84/184/2 87/185/2 83/186/2
f 88/187/3 85/188/3 87/189/3
f 86/190/4 81/191/4 85/192/4
f 87/193/5 81/194/5 83/195/5
f 84/196/6 86/197/6 88/198/6
f 90/199/1 91/200/1 89/201/1
f 92/202/2 95/203/2 91/204/2
f 96/205/3 93/206/3 95/207/3
f 94/208/4 89/209/4 93/210/4
f 95/211/5 89/212/5 91/213/5
f 92/214/6 94/215/6 96/216/6
f 98/217/1 99/218/1 97/219/1
f 100/220/2 103/221/2 99/222/2
f 104/223/3 101/224/3 103/225/3
f 102/226/4 97/227/4 101/228/4
f 103/229/5 97/230/5 99/231/5
f 100/232/6 102/233/6 104/234/6
f 106/235/1 107/236/1 105/237/1
f 108/238/2 111/239/2 107/240/2
f 112/241/3 109/242/3 111/243/3
f 110/244/4 105/245/4 109/246/4
f 111/247/5 105/248/5 107/249/5
f 108/250/6 110/251/6 112/252/6
f 114/253/1 115/254/1 113/255/1
f 116/256/2 119/257/2 115/258/2
f 120/259/3 117/260/3 119/261/3
f 118/262/4 113/263/4 117/264/4
f 119/265/5 113/266/5 115/267/5
f 116/268/6 118/269/6 120/270/6
f 122/271/1 123/272/1 121/273/1
f 124/274/2 127/275/2 123/276/2
f 128/277/3 125/278/3 127/279/3
f 126/280/4 121/281/4 125/282/4
f 127/283/5 121/284/5 123/285/5
f 124/286/6 126/287/6 128/288/6
f 130/289/1 131/290/1 129/291/1
f 132/292/2 135/293/2 131/294/2
f 136/295/3 133/296/3 135/297/3
f 134/298/4 129/299/4 133/300/4
f 135/301/5 129/302/5 131/303/5
f 132/304/6 134/305/6 136/306/6
f 137/307/5 139/308/5 140/309/5
f 141/310/6 143/311/6 142/312/6
f 141/313/3 138/314/3 137/315/3
f 142/316/4 139/317/4 138/318/4
f 139/319/1 144/320/1 140/321/1
f 137/322/2 144/323/2 141/324/2
f 2/1/1 4/325/1 3/2/1
f 4/4/2 8/326/2 7/5/2
f 8/7/3 6/327/3 5/8/3
f 6/10/4 2/328/4 1/11/4
f 7/13/5 5/329/5 1/14/5
f 4/16/6 2/330/6 6/17/6
f 10/19/1 12/331/1 11/20/1
f 12/22/2 16/332/2 15/23/2
f 16/25/3 14/333/3 13/26/3
f 14/28/4 10/334/4 9/29/4
f 15/31/5 13/335/5 9/32/5
f 12/34/6 10/336/6 14/35/6
f 17/37/5 18/337/5 19/38/5
f 21/40/6 24/338/6 23/41/6
f 21/43/3 22/339/3 18/44/3
f 22/46/4 23/340/4 19/47/4
f 19/49/1 23/341/1 24/50/1
f 17/52/2 20/342/2 24/53/2
f 26/55/1 28/343/1 27/56/1
f 28/58/2 32/344/2 31/59/2
f 32/61/3 30/345/3 29/62/3
f 30/64/4 26/346/4 25/65/4
f 31/67/5 29/347/5 25/68/5
f 28/70/6 26/348/6 30/71/6
f 34/73/1 36/349/1 35/74/1
f 36/76/2 40/350/2 39/77/2
f 40/79/3 38/351/3 37/80/3
f 38/82/4 34/352/4 33/83/4
f 39/85/5 37/353/5 33/86/5
f 36/88/6 34/354/6 38/89/6
f 42/91/1 44/355/1 43/92/1
f 44/94/2 48/356/2 47/95/2
f 48/97/3 46/357/3 45/98/3
f 46/100/4 42/358/4 41/101/4
f 47/103/5 45/359/5 41/104/5
f 44/106/6 42/360/6 46/107/6
f 50/109/1 52/361/1 51/110/1
f 52/112/2 56/362/2 55/113/2
f 56/115/3 54/363/3 53/116/3
f 54/118/4 50/364/4 49/119/4
f 55/121/5 53/365/5 49/122/5
f 52/124/6 50/366/6 54/125/6
f 58/127/1 60/367/1 59/128/1
f 60/130/2 64/368/2 63/131/2
f 64/133/3 62/369/3 61/134/3
f 62/136/4 58/370/4 57/137/4
f 63/139/5 61/371/5 57/140/5
f 60/142/6 58/372/6 62/143/6
f 66/145/1 68/373/1 67/146/1
f 68/148/2 72/374/2 71/149/2
f 72/151/3 70/375/3 69/152/3
f 70/154/4 66/376/4 65/155/4
f 71/157/5 69/377/5 65/158/5
f 68/160/6 66/378/6 70/161/6
f 74/163/1 76/379/1 75/164/1
f 76/166/2 80/380/2 79/167/2
f 80/169/3 78/381/3 77/170/3
f 78/172/4 74/382/4 73/173/4
f 79/175/5 77/383/5 73/176/5
f 76/178/6 74/384/6 78/179/6
f 82/181/1 84/385/1 83/182/1
f 84/184/2 88/386/2 87/185/2
f 88/187/3 86/387/3 85/188/3
f 86/190/4 82/388/4 81/191/4
f 87/193/5 85/389/5 81/194/5
f 84/196/6 82/390/6 86/197/6
f 90/199/1 92/391/1 91/200/1
f 92/202/2 96/392/2 95/203/2
f 96/205/3 94/393/3 93/206/3
f 94/208/4 90/394/4 89/209/4
f 95/211/5 93/395/5 89/212/5
f 92/214/6 90/396/6 94/215/6
f 98/217/1 100/397/1 99/218/1
f 100/220/2 104/398/2 103/221/2
f 104/223/3 102/399/3 101/224/3
f 102/226/4 98/400/4 97/227/4
f 103/229/5 101/401/5 97/230/5
f 100/232/6 98/402/6 102/233/6
f 106/235/1 108/403/1 107/236/1
f 108/238/2 112/404/2 111/239/2
f 112/241/3 110/405/3 109/242/3
f 110/244/4 106/406/4 105/245/4
f 111/247/5 109/407/5 105/248/5
f 108/250/6 106/408/6 110/251/6
f 114/253/1 116/409/1 115/254/1
f 116/256/2 120/410/2 119/257/2
f 120/259/3 118/411/3 117/260/3
f 118/262/4 114/412/4 113/263/4
f 119/265/5 117/413/5 113/266/5
f 116/268/6 114/414/6 118/269/6
f 122/271/1 124/415/1 123/272/1
f 124/274/2 128/416/2 127/275/2
f 128/277/3 126/417/3 125/278/3
f 126/280/4 122/418/4 121/281/4
f 127/283/5 125/419/5 121/284/5
f 124/286/6 122/420/6 126/287/6
f 130/289/1 132/421/1 131/290/1
f 132/292/2 136/422/2 135/293/2
f 136/295/3 134/423/3 133/296/3
f 134/298/4 130/424/4 129/299/4
f 135/301/5 133/425/5 129/302/5
f 132/304/6 130/426/6 134/305/6
f 137/307/5 138/427/5 139/308/5
f 141/310/6 144/428/6 143/311/6
f 141/313/3 142/429/3 138/314/3
f 142/316/4 143/430/4 139/317/4
f 139/319/1 143/431/1 144/320/1
f 137/322/2 140/432/2 144/323/2
